<svg xmlns="http://www.w3.org/2000/svg" width="32" height="32" viewBox="0 0 32 32"><g transform="translate(-1374 -12)"><path d="M16,0A16,16,0,1,1,0,16,16,16,0,0,1,16,0Z" transform="translate(1374 12)" fill="#fff"/><path d="M16,1A15,15,0,0,0,5.393,26.607,15,15,0,1,0,26.607,5.393,14.9,14.9,0,0,0,16,1m0-1A16,16,0,1,1,0,16,16,16,0,0,1,16,0Z" transform="translate(1374 12)" fill="#32b584"/><path d="M6.3,15.8a1.6,1.6,0,1,0,1.6,1.6A1.6,1.6,0,0,0,6.3,15.8ZM1.5,3V4.6H3.1l2.88,6.072L4.9,12.632a1.547,1.547,0,0,0-.2.768A1.6,1.6,0,0,0,6.3,15h9.6V13.4H6.636a.2.2,0,0,1-.2-.2l.024-.1.72-1.3h5.96a1.592,1.592,0,0,0,1.4-.824L17.4,5.784a.782.782,0,0,0,.1-.384.8.8,0,0,0-.8-.8H4.868L4.116,3ZM14.3,15.8a1.6,1.6,0,1,0,1.6,1.6A1.6,1.6,0,0,0,14.3,15.8Z" transform="translate(1380.5 18)" fill="#32b584"/></g></svg>