<svg xmlns="http://www.w3.org/2000/svg" width="26" height="29" viewBox="0 0 26 29"><g transform="translate(62.022 715.191)"><path d="M-48.729-707.777h0a.618.618,0,0,1-.617-.583l.618,11.121a.618.618,0,0,0,.651.583.618.618,0,0,0,.583-.651l-.612-11.022a.6.6,0,0,0,0-.1q-.007-.137-.007-.277a5.254,5.254,0,0,1,5.251-5.251,5.24,5.24,0,0,1,3.89,1.725l0,0a1.848,1.848,0,0,0,1.357.594,1.848,1.848,0,0,0,1.358-.594l0,0a5.239,5.239,0,0,1,3.89-1.725,5.229,5.229,0,0,1,3.382,1.236.618.618,0,0,0,.871-.074.618.618,0,0,0-.074-.871,6.461,6.461,0,0,0-4.179-1.527,6.471,6.471,0,0,0-4.8,2.127.612.612,0,0,1-.449.2.612.612,0,0,1-.447-.194,6.474,6.474,0,0,0-4.8-2.13,6.49,6.49,0,0,0-6.487,6.487q0,.172.009.341a.618.618,0,0,0,.609.585Z" transform="translate(-12.057)" fill="#333" fill-rule="evenodd"/><path d="M-27.521-423.98l.018.331a3.474,3.474,0,0,0,3.418,3.341h0a4.56,4.56,0,0,0,4.244-3l2.089-5.553a.6.6,0,0,1,.557-.394.6.6,0,0,1,.557.394l2.089,5.553a4.56,4.56,0,0,0,4.244,3h0a3.474,3.474,0,0,0,3.418-3.341l.649-12.07a.611.611,0,0,0-.564-.651.606.606,0,0,0-.63.583l-.649,12.07a2.26,2.26,0,0,1-2.224,2.174h0a3.362,3.362,0,0,1-3.13-2.213l-2.089-5.553a1.8,1.8,0,0,0-1.671-1.182,1.8,1.8,0,0,0-1.671,1.182l-2.089,5.553a3.362,3.362,0,0,1-3.13,2.213h0a2.261,2.261,0,0,1-2.224-2.174l-.018-.331a.606.606,0,0,0-.63-.583.611.611,0,0,0-.564.651Z" transform="translate(-32.818 -265.883)" fill="#333" fill-rule="evenodd"/><path d="M-45.865-448.694a.618.618,0,0,0,.226-.844l-1.236-2.14a.618.618,0,0,0-.844-.226l-13.376,7.723a1.853,1.853,0,0,0-.864,1.125,1.853,1.853,0,0,0,.185,1.406h0a1.853,1.853,0,0,0,1.125.864,1.853,1.853,0,0,0,1.406-.185l13.376-7.723Zm-1.153-.761-12.841,7.414a.618.618,0,0,1-.469.062.618.618,0,0,1-.375-.288h0a.618.618,0,0,1-.062-.469.618.618,0,0,1,.288-.375l12.841-7.414.618,1.07Z" transform="translate(0 -250.83)" fill="#333" fill-rule="evenodd"/><path d="M192.993-633.736a.618.618,0,0,0,.844.226l9.631-5.56a1.853,1.853,0,0,0,.864-1.125,1.853,1.853,0,0,0-.185-1.406l-2.162-3.745a1.854,1.854,0,0,0-1.125-.864,1.854,1.854,0,0,0-1.406.185l-8.561,4.943a1.853,1.853,0,0,0-.864,1.125,1.853,1.853,0,0,0,.185,1.406l2.78,4.815Zm.761-1.153-2.471-4.28a.618.618,0,0,1-.062-.469.618.618,0,0,1,.288-.375l8.561-4.943a.618.618,0,0,1,.469-.062.618.618,0,0,1,.375.288l2.162,3.745a.618.618,0,0,1,.062.469.618.618,0,0,1-.288.375l-9.1,5.251Z" transform="translate(-240.416 -65.557)" fill="#333" fill-rule="evenodd"/><path d="M312.478-603.931l1.236,2.14a.618.618,0,0,0,.844.226.618.618,0,0,0,.226-.844l-1.236-2.14a.618.618,0,0,0-.844-.226.618.618,0,0,0-.226.844Z" transform="translate(-356.702 -105.089)" fill="#333" fill-rule="evenodd"/><path d="M356.382-629.278l1.236,2.14a.618.618,0,0,0,.844.226.618.618,0,0,0,.226-.844l-1.236-2.14a.618.618,0,0,0-.844-.226.618.618,0,0,0-.226.844Z" transform="translate(-398.642 -80.843)" fill="#333" fill-rule="evenodd"/><path d="M268.575-578.583l1.236,2.14a.618.618,0,0,0,.844.226.618.618,0,0,0,.226-.844l-1.236-2.14a.618.618,0,0,0-.844-.226.618.618,0,0,0-.226.844Z" transform="translate(-314.876 -129.232)" fill="#333" fill-rule="evenodd"/><path d="M224.673-553.236l1.236,2.14a.618.618,0,0,0,.844.226.618.618,0,0,0,.226-.844l-1.236-2.14a.618.618,0,0,0-.844-.226.618.618,0,0,0-.226.844Z" transform="translate(-273.051 -153.374)" fill="#333" fill-rule="evenodd"/></g></svg>