<svg xmlns="http://www.w3.org/2000/svg" width="23" height="29" viewBox="0 0 23 29"><g transform="translate(-2328.479 715.191)"><path d="M2328.488-708.514c.017.318.01.322-.008,0,0,0,.737,13.23,1.061,19.053a3.463,3.463,0,0,0,3.46,3.268h0a4.612,4.612,0,0,0,2.458-.708.6.6,0,0,0,.189-.833.606.606,0,0,0-.835-.189,3.4,3.4,0,0,1-1.812.522h0a2.253,2.253,0,0,1-2.252-2.126l-1.055-18.956a.584.584,0,0,0,0-.095q-.007-.134-.007-.271a5.143,5.143,0,0,1,5.145-5.135,5.137,5.137,0,0,1,3.811,1.687l0,0a1.814,1.814,0,0,0,1.33.581,1.811,1.811,0,0,0,1.33-.581l0,0a5.136,5.136,0,0,1,3.811-1.687,5.142,5.142,0,0,1,5.144,5.135q0,.136-.007.271a.557.557,0,0,0,0,.095l-1.055,18.956a2.254,2.254,0,0,1-2.252,2.126h0a3.4,3.4,0,0,1-1.812-.522.606.606,0,0,0-.835.189.6.6,0,0,0,.189.833,4.611,4.611,0,0,0,2.458.708h0a3.463,3.463,0,0,0,3.46-3.268c.324-5.823,1.06-19.053,1.06-19.053l-.008,0q.008-.166.009-.334a6.352,6.352,0,0,0-6.355-6.344,6.344,6.344,0,0,0-4.7,2.08.6.6,0,0,1-.44.192.6.6,0,0,1-.438-.189,6.346,6.346,0,0,0-4.707-2.083,6.353,6.353,0,0,0-6.355,6.344q0,.168.009.334Z" fill="#333" fill-rule="evenodd"/><path d="M2529.865-426.017a.617.617,0,0,0-.2-.456l-3.708-3.4a.618.618,0,0,0-.73-.078.618.618,0,0,0-.289.675l1.219,5.183v9.2a.618.618,0,0,0,.618.618h1.236a1.854,1.854,0,0,0,1.311-.543,1.854,1.854,0,0,0,.543-1.311v-9.888Zm-1.236.272v9.616a.617.617,0,0,1-.181.437.617.617,0,0,1-.437.181h-.618v-8.652a.615.615,0,0,0-.016-.142l-.777-3.3,2.029,1.86Z" transform="translate(-187.113 -271.916)" fill="#333" fill-rule="evenodd"/><path d="M2503.282-283.669a.618.618,0,0,0-.618-.618h-2.472a.618.618,0,0,0-.618.618v6.18a1.854,1.854,0,0,0,1.854,1.854h1.236a.618.618,0,0,0,.618-.618v-7.416Zm-1.236.618v6.18h-.618a.618.618,0,0,1-.618-.618v-5.562Z" transform="translate(-162.956 -410.556)" fill="#333" fill-rule="evenodd"/><path d="M2466.5-500.053a.618.618,0,0,0,.618-.618v-1.854a.614.614,0,0,0-.016-.142l-.776-3.3,2.029,1.86v3.436a.618.618,0,0,0,.618.618h1.236a1.854,1.854,0,0,0,1.311-.543,1.853,1.853,0,0,0,.543-1.311v-8.652a1.853,1.853,0,0,0-.543-1.311,1.854,1.854,0,0,0-1.311-.543h-6.8a1.854,1.854,0,0,0-1.311.543,1.854,1.854,0,0,0-.543,1.311v8.652a1.854,1.854,0,0,0,.543,1.311,1.854,1.854,0,0,0,1.311.543Zm-.618-1.236h-2.472a.618.618,0,0,1-.437-.181.618.618,0,0,1-.181-.437v-8.652a.618.618,0,0,1,.181-.437.618.618,0,0,1,.437-.181h6.8a.619.619,0,0,1,.437.181.619.619,0,0,1,.181.437v8.652a.618.618,0,0,1-.181.437.618.618,0,0,1-.437.181h-.618v-3.09a.617.617,0,0,0-.2-.456l-3.708-3.4a.618.618,0,0,0-.73-.078.618.618,0,0,0-.289.675l1.219,5.183v1.164Z" transform="translate(-126.827 -193.269)" fill="#333" fill-rule="evenodd"/></g></svg>