<svg xmlns="http://www.w3.org/2000/svg" width="29" height="29" viewBox="0 0 29 29"><g transform="translate(954 -1008.427)"><path d="M-890.623,1015.262c.017.326.01.33-.008,0l.206,3.711a.619.619,0,0,0,.652.583.619.619,0,0,0,.583-.652l-.2-3.611a.612.612,0,0,0,0-.1q-.007-.138-.007-.277a5.259,5.259,0,0,1,5.257-5.257,5.245,5.245,0,0,1,3.894,1.727l0,0a1.85,1.85,0,0,0,1.359.595,1.849,1.849,0,0,0,1.359-.595l0,0a5.243,5.243,0,0,1,3.894-1.727.619.619,0,0,0,.618-.618.619.619,0,0,0-.618-.618,6.477,6.477,0,0,0-4.807,2.129.613.613,0,0,1-.45.2.613.613,0,0,1-.447-.194,6.48,6.48,0,0,0-4.81-2.132,6.5,6.5,0,0,0-6.494,6.494q0,.172.009.341Z" transform="translate(-60.276)" fill="#333" fill-rule="evenodd"/><path d="M-872.325,1224.226c.069,1.281.132,2.453.184,3.424a3.477,3.477,0,0,0,3.42,3.345h0a4.563,4.563,0,0,0,4.247-3l2.091-5.558a.6.6,0,0,1,.557-.394.6.6,0,0,1,.557.394l2.091,5.558a4.563,4.563,0,0,0,4.247,3h0a3.477,3.477,0,0,0,3.42-3.345c.214-3.98.61-11.34.849-15.792a.612.612,0,0,0-.564-.652.606.606,0,0,0-.63.583l-.849,15.792a2.262,2.262,0,0,1-2.225,2.177h0a3.365,3.365,0,0,1-3.132-2.215l-2.091-5.558a1.8,1.8,0,0,0-1.673-1.183,1.8,1.8,0,0,0-1.672,1.183l-2.091,5.558a3.365,3.365,0,0,1-3.132,2.215h0a2.262,2.262,0,0,1-2.225-2.177l-.184-3.424a.606.606,0,0,0-.63-.583.611.611,0,0,0-.564.652Z" transform="translate(-77.689 -193.568)" fill="#333" fill-rule="evenodd"/><path d="M-517.775,1008.427a4.331,4.331,0,0,0-4.329,4.329,4.331,4.331,0,0,0,4.329,4.329,4.331,4.331,0,0,0,4.329-4.329,4.331,4.331,0,0,0-4.329-4.329Zm0,1.237a3.094,3.094,0,0,1,3.092,3.092,3.094,3.094,0,0,1-3.092,3.092,3.094,3.094,0,0,1-3.092-3.092,3.094,3.094,0,0,1,3.092-3.092Z" transform="translate(-411.554)" fill="#333" fill-rule="evenodd"/><path d="M-949.671,1261.9A4.331,4.331,0,0,0-954,1266.23a4.331,4.331,0,0,0,4.329,4.329,4.331,4.331,0,0,0,4.329-4.329,4.331,4.331,0,0,0-4.329-4.329Zm0,1.237a3.094,3.094,0,0,1,3.092,3.092,3.094,3.094,0,0,1-3.092,3.092,3.094,3.094,0,0,1-3.092-3.092,3.094,3.094,0,0,1,3.092-3.092Z" transform="translate(0 -241.508)" fill="#333" fill-rule="evenodd"/><path d="M-621.392,1249.227a3.094,3.094,0,0,0-3.092,3.092,3.094,3.094,0,0,0,3.092,3.092,3.094,3.094,0,0,0,3.092-3.092,3.094,3.094,0,0,0-3.092-3.092Zm0,1.237a1.856,1.856,0,0,1,1.855,1.855,1.856,1.856,0,0,1-1.855,1.855,1.856,1.856,0,0,1-1.855-1.855,1.856,1.856,0,0,1,1.855-1.855Z" transform="translate(-313.937 -229.392)" fill="#333" fill-rule="evenodd"/><path d="M-811.5,1097.143a3.094,3.094,0,0,0-3.092,3.092,3.094,3.094,0,0,0,3.092,3.092,3.094,3.094,0,0,0,3.092-3.092,3.094,3.094,0,0,0-3.092-3.092Zm0,1.237a1.856,1.856,0,0,1,1.855,1.855,1.856,1.856,0,0,1-1.855,1.855,1.856,1.856,0,0,1-1.855-1.855,1.856,1.856,0,0,1,1.855-1.855Z" transform="translate(-132.82 -84.387)" fill="#333" fill-rule="evenodd"/></g></svg>