<svg xmlns="http://www.w3.org/2000/svg" width="29" height="30" viewBox="0 0 29 30"><g transform="translate(-1492.307 715.191)"><path d="M1644.107-591.426c.017.326.014.328,0,0l.62,10.789a2.278,2.278,0,0,0,2.307,2.109h0a2.98,2.98,0,0,0,2.778-1.836l1.238-3.075a.071.071,0,0,1,.066-.044.071.071,0,0,1,.066.044l1.238,3.075a2.98,2.98,0,0,0,2.778,1.836h0a2.278,2.278,0,0,0,2.307-2.109l.62-10.789,0,0q.005-.1.006-.2a3.937,3.937,0,0,0-4-3.866,4.068,4.068,0,0,0-2.591.921l0,0a.652.652,0,0,1-.83,0l0,0a4.072,4.072,0,0,0-2.591-.92,3.937,3.937,0,0,0-4,3.866q0,.1.006.2Zm12.739.006-.616,10.717a1.022,1.022,0,0,1-1.034.946h0a1.706,1.706,0,0,1-1.59-1.051l-1.238-3.075a1.345,1.345,0,0,0-1.254-.829,1.346,1.346,0,0,0-1.254.829l-1.238,3.075a1.706,1.706,0,0,1-1.59,1.051h0A1.021,1.021,0,0,1,1646-580.7l-.616-10.717a.569.569,0,0,0,0-.071q0-.069,0-.139a2.683,2.683,0,0,1,2.726-2.634,2.774,2.774,0,0,1,1.766.627,1.959,1.959,0,0,0,2.492,0l0,0a2.773,2.773,0,0,1,1.765-.627,2.683,2.683,0,0,1,2.727,2.634c0,.047,0,.093,0,.139a.569.569,0,0,0,0,.071Z" transform="translate(-144.313 -113.676)" fill="#333" fill-rule="evenodd"/><path d="M1496.072-308.359a1.65,1.65,0,0,1,1.4.785l1.278,2.067a4.719,4.719,0,0,0,4.011,2.247h2.774a.634.634,0,0,0,.631-.637.634.634,0,0,0-.631-.637h-2.774a3.461,3.461,0,0,1-2.942-1.648l-1.278-2.067a2.909,2.909,0,0,0-2.472-1.385h0a3.535,3.535,0,0,0-2.679,1.233,3.614,3.614,0,0,0-.838,2.852,9.34,9.34,0,0,1-.151,3.6,1.884,1.884,0,0,0,.242,1.68,1.9,1.9,0,0,0,1.509.833h25.3a1.9,1.9,0,0,0,1.508-.833,1.883,1.883,0,0,0,.243-1.677,9.338,9.338,0,0,1-.151-3.6,3.614,3.614,0,0,0-.838-2.85,3.535,3.535,0,0,0-2.679-1.233h0a2.909,2.909,0,0,0-2.472,1.385l-1.278,2.067a3.46,3.46,0,0,1-2.942,1.648l-2.789,0a.634.634,0,0,0-.63.638.634.634,0,0,0,.631.637l2.788,0a4.719,4.719,0,0,0,4.011-2.247l1.278-2.067a1.65,1.65,0,0,1,1.4-.785h0a2.279,2.279,0,0,1,1.727.8,2.329,2.329,0,0,1,.54,1.839v0a10.623,10.623,0,0,0,.189,4.134c0,.015.009.03.014.045a.6.6,0,0,1-.075.54.621.621,0,0,1-.479.295h-25.3a.62.62,0,0,1-.479-.295.6.6,0,0,1-.075-.54c.005-.015.01-.03.014-.045a10.625,10.625,0,0,0,.189-4.134,0,0,0,0,0,0,0,2.331,2.331,0,0,1,.54-1.839,2.28,2.28,0,0,1,1.727-.8Z" transform="translate(0 -385.755)" fill="#333" fill-rule="evenodd"/><path d="M1531.951-715.191h0a1.912,1.912,0,0,0-1.912,1.912v5.835a3.187,3.187,0,0,0,1.594,2.76l2.549,1.472a.638.638,0,0,0,.871-.233.638.638,0,0,0-.233-.871l-2.55-1.472a1.913,1.913,0,0,1-.956-1.656v-5.835a.638.638,0,0,1,.637-.637.637.637,0,0,1,.451.187.637.637,0,0,1,.187.451v5.1a1.912,1.912,0,0,0,.956,1.656l.637.368a.638.638,0,0,0,.871-.233.638.638,0,0,0-.233-.871l-.637-.368a.638.638,0,0,1-.319-.552v-5.1a1.912,1.912,0,0,0-.56-1.352,1.912,1.912,0,0,0-1.352-.56Z" transform="translate(-35.835 0)" fill="#333" fill-rule="evenodd"/><path d="M1938.782-715.191a1.913,1.913,0,0,0-1.352.56,1.912,1.912,0,0,0-.56,1.352v5.1a.638.638,0,0,1-.319.552l-.637.368a.638.638,0,0,0-.233.871.638.638,0,0,0,.871.233l.637-.368a1.912,1.912,0,0,0,.956-1.656v-5.1a.638.638,0,0,1,.187-.451.638.638,0,0,1,.451-.187.637.637,0,0,1,.637.637v5.835a1.913,1.913,0,0,1-.956,1.656l-2.55,1.472a.638.638,0,0,0-.233.871.638.638,0,0,0,.871.233l2.55-1.472a3.187,3.187,0,0,0,1.593-2.76v-5.835a1.912,1.912,0,0,0-1.912-1.912Z" transform="translate(-421.3 0)" fill="#333" fill-rule="evenodd"/></g></svg>