<svg xmlns="http://www.w3.org/2000/svg" width="23" height="29" viewBox="0 0 23 29"><g transform="translate(890.632 715.191)"><path d="M-890.027-707.941h0a.6.6,0,0,1-.6-.571l1.06,19.053a3.463,3.463,0,0,0,3.46,3.267h0a4.614,4.614,0,0,0,3.851-2.071.6.6,0,0,0-.173-.837.606.606,0,0,0-.838.172,3.4,3.4,0,0,1-2.84,1.527h0a2.253,2.253,0,0,1-2.252-2.126l-1.055-18.956a.592.592,0,0,0,0-.095q-.007-.134-.007-.271a5.143,5.143,0,0,1,5.145-5.135,5.138,5.138,0,0,1,3.811,1.687l0,0a1.812,1.812,0,0,0,1.33.581,1.812,1.812,0,0,0,1.33-.581l0,0a5.137,5.137,0,0,1,3.811-1.687,5.143,5.143,0,0,1,5.145,5.135q0,.136-.007.271a.6.6,0,0,0,0,.095l-1.055,18.956a2.253,2.253,0,0,1-2.252,2.126h0A3.4,3.4,0,0,1-875-688.938a.606.606,0,0,0-.838-.176.6.6,0,0,0-.176.836,4.614,4.614,0,0,0,3.861,2.086h0a3.463,3.463,0,0,0,3.46-3.267c.324-5.823,1.06-19.053,1.06-19.053l-.6.571.009-.016.588-.557q.009-.166.009-.333a6.352,6.352,0,0,0-6.355-6.344,6.344,6.344,0,0,0-4.7,2.08.6.6,0,0,1-.44.192.6.6,0,0,1-.438-.189,6.348,6.348,0,0,0-4.707-2.083,6.353,6.353,0,0,0-6.355,6.344q0,.168.009.333a.6.6,0,0,0,.6.573Z" transform="translate(0 0)" fill="#333" fill-rule="evenodd"/><path d="M-781.864-459.861h0a1.824,1.824,0,0,0-1.789-1.857h-10.137a1.824,1.824,0,0,0-1.789,1.857h0A1.824,1.824,0,0,0-793.789-458h10.137a1.824,1.824,0,0,0,1.789-1.857Zm-1.193,0a.608.608,0,0,1-.6.619h-10.137a.608.608,0,0,1-.6-.619h0a.608.608,0,0,1,.6-.619h10.137a.608.608,0,0,1,.6.619Z" transform="translate(-90.411 -241.432)" fill="#333" fill-rule="evenodd"/><path d="M-752.781-410.217a.619.619,0,0,0-.091-.552.619.619,0,0,0-.5-.253h-9.9a.619.619,0,0,0-.5.253.619.619,0,0,0-.091.552l3.342,10.582a2.308,2.308,0,0,0,2.2,1.613h0a2.308,2.308,0,0,0,2.2-1.613l3.341-10.582Zm-1.435.433-3.087,9.776a1.07,1.07,0,0,1-1.02.748h0a1.07,1.07,0,0,1-1.02-.748l-3.087-9.776Z" transform="translate(-120.808 -290.025)" fill="#333" fill-rule="evenodd"/><path d="M-735.269-411.1l-3.1,3.1a.619.619,0,0,0,0,.876.619.619,0,0,0,.875,0l3.1-3.1a.619.619,0,0,0,0-.875.619.619,0,0,0-.875,0Z" transform="translate(-144.861 -289.48)" fill="#333" fill-rule="evenodd"/><path d="M-719.625-410.839l-5.881,5.881a.619.619,0,0,0,0,.875.619.619,0,0,0,.875,0l5.881-5.881a.619.619,0,0,0,0-.875.619.619,0,0,0-.875,0Z" transform="translate(-157.145 -289.783)" fill="#333" fill-rule="evenodd"/><path d="M-700.154-372.818l-6.526,6.526a.619.619,0,0,0,0,.875.619.619,0,0,0,.876,0l6.526-6.526a.619.619,0,0,0,0-.875.619.619,0,0,0-.875,0Z" transform="translate(-175.093 -326.021)" fill="#333" fill-rule="evenodd"/><path d="M-686.59-277.766l-4.2,4.2a.619.619,0,0,0,0,.875.619.619,0,0,0,.875,0l4.2-4.2a.619.619,0,0,0,0-.876.619.619,0,0,0-.875,0Z" transform="translate(-190.186 -416.601)" fill="#333" fill-rule="evenodd"/></g></svg>