<svg xmlns="http://www.w3.org/2000/svg" width="29" height="29" viewBox="0 0 29 29"><g transform="translate(91.818 -1008.427)"><path d="M-91.809,1015.1c.017.318.01.322-.008,0l1.059,19.053a3.46,3.46,0,0,0,3.454,3.268h0a4.6,4.6,0,0,0,4.29-2.934l2.112-5.43a.6.6,0,0,1,.563-.385.6.6,0,0,1,.563.385l2.112,5.43a4.6,4.6,0,0,0,4.29,2.934h0a3.459,3.459,0,0,0,3.454-3.268c.116-2.09.285-5.134.454-8.178a.6.6,0,0,0-.57-.637.6.6,0,0,0-.637.57l-.454,8.178a2.251,2.251,0,0,1-2.248,2.126h0a3.4,3.4,0,0,1-3.164-2.164l-2.112-5.43a1.813,1.813,0,0,0-1.689-1.155,1.813,1.813,0,0,0-1.689,1.155l-2.112,5.43a3.4,3.4,0,0,1-3.164,2.164h0a2.251,2.251,0,0,1-2.248-2.126l-1.053-18.956a.6.6,0,0,0,0-.095q-.007-.134-.007-.271a5.138,5.138,0,0,1,5.136-5.135,5.125,5.125,0,0,1,3.8,1.687l0,0a1.807,1.807,0,0,0,1.328.581,1.807,1.807,0,0,0,1.328-.581l0,0a5.124,5.124,0,0,1,3.8-1.687,5.135,5.135,0,0,1,4.367,2.433.6.6,0,0,0,.832.195.6.6,0,0,0,.195-.832,6.342,6.342,0,0,0-5.394-3,6.329,6.329,0,0,0-4.7,2.08.6.6,0,0,1-.439.192.6.6,0,0,1-.437-.189,6.332,6.332,0,0,0-4.7-2.083,6.347,6.347,0,0,0-6.344,6.344q0,.168.009.333Z" transform="translate(0)" fill="#333" fill-rule="evenodd"/><path d="M238.4,1096.135a1.817,1.817,0,0,0,0-2.569L229.838,1085a1.817,1.817,0,0,0-2.569,0l-1.713,1.713a1.817,1.817,0,0,0,0,2.569l8.564,8.564a1.817,1.817,0,0,0,2.569,0l1.713-1.713Zm-.856-.856-1.713,1.713a.605.605,0,0,1-.856,0l-8.564-8.564a.606.606,0,0,1,0-.856l1.713-1.713a.606.606,0,0,1,.856,0l8.564,8.564a.606.606,0,0,1,0,.856Z" transform="translate(-301.753 -72.408)" fill="#333" fill-rule="evenodd"/><path d="M287.254,1145.843a.606.606,0,1,1-.856,0,.606.606,0,0,1,.856,0Z" transform="translate(-360.007 -130.697)" fill="#333" fill-rule="evenodd"/><path d="M323.1,1181.69a.606.606,0,1,1-.856,0,.606.606,0,0,1,.856,0Z" transform="translate(-394.144 -164.835)" fill="#333" fill-rule="evenodd"/><path d="M228.982,1091a.605.605,0,0,0-.856,0l-2.569,2.569a1.817,1.817,0,0,0,0,2.569l1.713,1.713a1.817,1.817,0,0,0,2.569,0l2.569-2.569a.606.606,0,0,0,0-.856L228.982,1091Zm-.428,1.285,2.569,2.569-2.141,2.141a.605.605,0,0,1-.856,0l-1.713-1.713a.606.606,0,0,1,0-.856l2.141-2.141Zm3-4.71a.605.605,0,0,0,0,.856l3.426,3.426a.606.606,0,0,0,.856,0l2.569-2.569a1.817,1.817,0,0,0,0-2.569L236.69,1085a1.817,1.817,0,0,0-2.569,0l-2.569,2.569Zm1.285.428,2.141-2.141a.606.606,0,0,1,.856,0l1.713,1.713a.606.606,0,0,1,0,.856l-2.141,2.141L232.836,1088Z" transform="translate(-301.753 -72.408)" fill="#333" fill-rule="evenodd"/></g></svg>