<svg xmlns="http://www.w3.org/2000/svg" width="29" height="29" viewBox="0 0 29 29"><g transform="translate(92.191 1577)"><path d="M-92.187-1570.421q0-.117,0-.235c0-3.524,2.569-6.344,5.674-6.344a5.488,5.488,0,0,1,4.524,2.514,5.667,5.667,0,0,1,3.241-2.351.62.62,0,0,1,.755.43.6.6,0,0,1-.44.738,4.62,4.62,0,0,0-2.989,2.688.619.619,0,0,1-.568.365.618.618,0,0,1-.567-.365,4.425,4.425,0,0,0-3.956-2.81c-2.477,0-4.438,2.324-4.438,5.135q0,.139.006.275a.587.587,0,0,1,0,.088l.928,18.964a2.07,2.07,0,0,0,1.894,2.122h0a2.95,2.95,0,0,0,2.7-2.137l1.86-5.43a1.688,1.688,0,0,1,1.578-1.183,1.689,1.689,0,0,1,1.578,1.183l1.86,5.43a3.558,3.558,0,0,0,.449.889.6.6,0,0,1-.161.84.627.627,0,0,1-.859-.157,4.759,4.759,0,0,1-.6-1.188l-1.86-5.43a.466.466,0,0,0-.406-.358.466.466,0,0,0-.406.358l-1.86,5.43A4.173,4.173,0,0,1-88.128-1548h0a3.289,3.289,0,0,1-3.129-3.272l-.932-19.053a.587.587,0,0,1,0-.1Z" fill="#333" fill-rule="evenodd"/><path d="M228.665-1574.486a6.106,6.106,0,0,1,1.007-1.149,5.286,5.286,0,0,1,3.516-1.364c3.1,0,5.674,2.82,5.674,6.344q0,.118,0,.235a.573.573,0,0,1,0,.1l-.932,19.053A3.289,3.289,0,0,1,234.8-1548h0a4.173,4.173,0,0,1-3.869-2.962l-1.86-5.43a.466.466,0,0,0-.406-.358.466.466,0,0,0-.406.358l-1.86,5.43a4.75,4.75,0,0,1-.626,1.224.627.627,0,0,1-.861.149.6.6,0,0,1-.153-.841,3.554,3.554,0,0,0,.468-.916l1.86-5.43a1.688,1.688,0,0,1,1.578-1.183,1.688,1.688,0,0,1,1.578,1.183l1.86,5.43a2.95,2.95,0,0,0,2.7,2.137h0a2.07,2.07,0,0,0,1.894-2.122l.928-18.964a.578.578,0,0,1,0-.088q.006-.136.006-.275c0-2.812-1.961-5.135-4.438-5.135a4.044,4.044,0,0,0-2.688,1.052,5.075,5.075,0,0,0-1.269,1.758.618.618,0,0,1-.568.365.619.619,0,0,1-.567-.365,4.62,4.62,0,0,0-2.99-2.688.6.6,0,0,1-.44-.738.62.62,0,0,1,.755-.43,5.667,5.667,0,0,1,3.241,2.351Z" transform="translate(-302.054)" fill="#333" fill-rule="evenodd"/><path d="M154.789-1359.694a1.854,1.854,0,0,0-1.854-1.854h-2.472a1.854,1.854,0,0,0-1.854,1.854v2.472a1.854,1.854,0,0,0,1.854,1.854h2.472a1.854,1.854,0,0,0,1.854-1.854v-2.472Zm-1.236,0a.618.618,0,0,0-.618-.618h-2.472a.618.618,0,0,0-.618.618v2.472a.618.618,0,0,0,.618.618h2.472a.618.618,0,0,0,.618-.618v-2.472Z" transform="translate(-229.39 -205.243)" fill="#333" fill-rule="evenodd"/><path d="M332.22-1359.694a1.854,1.854,0,0,0-1.854-1.854h-2.472a1.854,1.854,0,0,0-1.854,1.854v2.472a1.854,1.854,0,0,0,1.854,1.854h2.472a1.854,1.854,0,0,0,1.854-1.854v-2.472Zm-1.236,0a.618.618,0,0,0-.618-.618h-2.472a.618.618,0,0,0-.618.618v2.472a.618.618,0,0,0,.618.618h2.472a.618.618,0,0,0,.618-.618v-2.472Z" transform="translate(-398.501 -205.243)" fill="#333" fill-rule="evenodd"/><path d="M430.828-1310.854h-2.781a.618.618,0,0,0-.618.618.618.618,0,0,0,.618.618h2.781a.618.618,0,0,0,.618-.618.618.618,0,0,0-.618-.618Z" transform="translate(-494.946 -253.471)" fill="#333" fill-rule="evenodd"/><path d="M254.324-1310.854h-3.708a.618.618,0,0,0-.618.618.618.618,0,0,0,.618.618h3.708a.618.618,0,0,0,.618-.618.618.618,0,0,0-.618-.618Z" transform="translate(-325.951 -253.471)" fill="#333" fill-rule="evenodd"/><path d="M76.893-1310.854H73.185a.618.618,0,0,0-.618.618.618.618,0,0,0,.618.618h3.708a.618.618,0,0,0,.618-.618.618.618,0,0,0-.618-.618Z" transform="translate(-156.94 -253.471)" fill="#333" fill-rule="evenodd"/><path d="M-82.455-1310.854h-2.781a.618.618,0,0,0-.618.618.618.618,0,0,0,.618.618h2.781a.618.618,0,0,0,.618-.618.618.618,0,0,0-.618-.618Z" transform="translate(-6.028 -253.471)" fill="#333" fill-rule="evenodd"/><path d="M-22.643-1359.694a1.854,1.854,0,0,0-1.854-1.854h-2.472a1.854,1.854,0,0,0-1.854,1.854v2.472a1.854,1.854,0,0,0,1.854,1.854H-24.5a1.854,1.854,0,0,0,1.854-1.854v-2.472Zm-1.236,0a.618.618,0,0,0-.618-.618h-2.472a.618.618,0,0,0-.618.618v2.472a.618.618,0,0,0,.618.618H-24.5a.618.618,0,0,0,.618-.618v-2.472Z" transform="translate(-60.278 -205.243)" fill="#333" fill-rule="evenodd"/></g></svg>