<svg xmlns="http://www.w3.org/2000/svg" width="419" height="190" viewBox="0 0 419 190"><g transform="translate(0 -710)"><path d="M0,0H411a8,8,0,0,1,8,8V190a0,0,0,0,1,0,0H0a0,0,0,0,1,0,0V0A0,0,0,0,1,0,0Z" transform="translate(0 710)" fill="#fff"/><path d="M2.338-9.256H3.931l1.5-.027a.216.216,0,0,1,.137.027.235.235,0,0,1,.021.123v1.039a8.829,8.829,0,0,0,2.632-2.755,4.927,4.927,0,0,0,.4-.916q.513.068,1.429.267.2.068.2.212a.277.277,0,0,1-.144.212.389.389,0,0,0-.082.068,9.333,9.333,0,0,0,3.685,3.09,4.2,4.2,0,0,0-.574,1.053q-.137.349-.239.349a1.125,1.125,0,0,1-.308-.137A10.829,10.829,0,0,1,9.3-9.857a11.244,11.244,0,0,1-3.015,3.09.871.871,0,0,1-.335.171q-.123,0-.294-.308a3.309,3.309,0,0,0-.67-.813l.4-.253L3.931-8H2.338l-1.5.027Q.725-7.971.7-8a.255.255,0,0,1-.021-.13v-1q0-.109.027-.13a.255.255,0,0,1,.13-.021ZM5.243.711q0,.157-.137.157h-1q-.116,0-.137-.027a.255.255,0,0,1-.021-.13V.28h-1.4V.964a.216.216,0,0,1-.027.137.255.255,0,0,1-.13.021H1.395a.249.249,0,0,1-.15-.027.255.255,0,0,1-.021-.13l.034-2.1v-.9L1.224-3.343q0-.116.034-.137A.276.276,0,0,1,1.395-3.5l1.271.027H3.808l1.3-.027q.137,0,.137.157L5.216-2.27V-1.3Zm-1.3-3.021h-1.4V-.882h1.4ZM5.4-.171A14.272,14.272,0,0,0,9.235-1.634a9.769,9.769,0,0,0,2.352-1.921,3.7,3.7,0,0,0,.547-.772,8.788,8.788,0,0,1,1.046.772q.171.15.171.239t-.171.178a2.361,2.361,0,0,0-.444.438A12.649,12.649,0,0,1,6.686.971a1.734,1.734,0,0,1-.321.068q-.116,0-.308-.335A3.649,3.649,0,0,0,5.4-.171Zm.41-2.659a10.106,10.106,0,0,0,4.614-2.912,3.4,3.4,0,0,0,.4-.588,11.352,11.352,0,0,1,1,.718q.157.116.157.226t-.171.205a1.516,1.516,0,0,0-.376.335A12.455,12.455,0,0,1,7.082-1.832a1.324,1.324,0,0,1-.335.109q-.109,0-.308-.335A3.55,3.55,0,0,0,5.811-2.83Zm-.13-2.6A8.249,8.249,0,0,0,8.928-7.52a2.679,2.679,0,0,0,.41-.561,9.028,9.028,0,0,1,1,.718q.157.137.157.226t-.185.178a1.775,1.775,0,0,0-.458.39A8.714,8.714,0,0,1,6.932-4.5a1.025,1.025,0,0,1-.342.123q-.116,0-.294-.308A3.08,3.08,0,0,0,5.681-5.435ZM2.7-11.17H3.876L5.134-11.2a.249.249,0,0,1,.15.027.235.235,0,0,1,.021.123v.923q0,.116-.034.137a.276.276,0,0,1-.137.021L3.876-9.994H2.7l-1.271.027q-.116,0-.137-.027a.255.255,0,0,1-.021-.13v-.923q0-.109.027-.13a.255.255,0,0,1,.13-.021Zm.055,3.9h1l1.189-.027a.232.232,0,0,1,.144.027.255.255,0,0,1,.021.13v.909q0,.109-.027.13a.276.276,0,0,1-.137.021L3.753-6.1h-1l-1.189.027A.216.216,0,0,1,1.429-6.1a.235.235,0,0,1-.021-.123v-.909q0-.116.034-.137a.214.214,0,0,1,.123-.021Zm0,1.894h1l1.189-.034a.232.232,0,0,1,.144.027.255.255,0,0,1,.021.13v.9q0,.116-.027.137a.276.276,0,0,1-.137.021L3.753-4.225h-1L1.565-4.2a.216.216,0,0,1-.137-.027.255.255,0,0,1-.021-.13v-.9q0-.109.034-.137a.214.214,0,0,1,.123-.021Zm23.57-1.948q.308.185.82.547a.257.257,0,0,1,.13.191.176.176,0,0,1-.144.171,1.637,1.637,0,0,0-.417.294l-.362.308a8.3,8.3,0,0,0,1.791.738,3.22,3.22,0,0,0-.465.766q-.15.349-.26.349a1.025,1.025,0,0,1-.342-.123,8.365,8.365,0,0,1-1.06-.554v1.36l.027,1.135q0,.1-.027.126a.26.26,0,0,1-.144.024l-1.832-.027H23.59v.6l.021,1.333a.958.958,0,0,1-.479.95,2.935,2.935,0,0,1-1.319.212h-.376q-.205,0-.26-.089a1.324,1.324,0,0,1-.1-.335,2.708,2.708,0,0,0-.294-.827,9.032,9.032,0,0,0,.964.048.592.592,0,0,0,.424-.109.424.424,0,0,0,.082-.3V-2.017h-.574l-1.832.027q-.109,0-.13-.027a.235.235,0,0,1-.021-.123l.021-1.285V-4.437l-.725.479a.628.628,0,0,1-.239.109q-.075,0-.191-.2-.1-.144-.342-.444a14.977,14.977,0,0,1-.246,1.941A8.993,8.993,0,0,1,16.57.7q-.178.239-.267.239T16.037.7a3.2,3.2,0,0,0-.8-.766A6.579,6.579,0,0,0,16.706-3.1q.1-.458.171-1-.267.157-.8.438a1.475,1.475,0,0,0-.431.28.279.279,0,0,1-.212.109.172.172,0,0,1-.171-.15A12.827,12.827,0,0,1,14.9-4.689a7.663,7.663,0,0,0,1.121-.355,8.732,8.732,0,0,0,.95-.444q.034-1.06.034-1.846l-.034-3.179a.249.249,0,0,1,.027-.15.235.235,0,0,1,.123-.021l1.935.027h2.516v-.1a5.328,5.328,0,0,0-.109-1.073q.656,0,1.5.068.226.021.226.15a.816.816,0,0,1-.089.253,1.52,1.52,0,0,0-.068.547v.15h2.693l1.9-.027q.109,0,.13.034a.364.364,0,0,1,.014.137V-9.6a.232.232,0,0,1-.021.13.235.235,0,0,1-.123.021l-1.9-.027H22.162q.608.089,1.121.2.226.041.226.164a.353.353,0,0,1-.13.253,1.4,1.4,0,0,0-.308.465H25.5l1.935-.027q.109,0,.13.027a.235.235,0,0,1,.021.123v.827q0,.144-.15.144L25.5-7.335h-.9a4.834,4.834,0,0,0,.868.923A7.139,7.139,0,0,0,26-6.9,2.4,2.4,0,0,0,26.325-7.321Zm-5.517-.014-1.935.027q-.15,0-.15-.144v-.827q0-.109.027-.13a.235.235,0,0,1,.123-.021l1.935.027h.909a4.187,4.187,0,0,0,.321-1.08H18.306v2.4q0,1.3-.062,2.14A12.031,12.031,0,0,0,19.482-5.7a7.859,7.859,0,0,0-.786-.834.192.192,0,0,1-.062-.109q0-.055.116-.144l.479-.41a.238.238,0,0,1,.137-.068.162.162,0,0,1,.13.068,9.127,9.127,0,0,1,.82.8,4.9,4.9,0,0,0,.813-.937Zm3.931,2.194H20.945V-4.5h3.794Zm0,2.16v-.588H20.945v.588Zm-.574-3.165A5.9,5.9,0,0,1,23.3-7.335h-.766a7.466,7.466,0,0,1-.854,1.189ZM20.248-1.907q.807.41.95.492.171.1.171.226,0,.1-.185.212a1.59,1.59,0,0,0-.308.26,7.624,7.624,0,0,1-1.7,1.306.856.856,0,0,1-.335.137q-.1,0-.335-.28a3.553,3.553,0,0,0-.67-.629A7.215,7.215,0,0,0,19.7-1.271,2.473,2.473,0,0,0,20.248-1.907Zm5.079.171a6.988,6.988,0,0,0,2.3,1.347,3.794,3.794,0,0,0-.6.766Q26.817.7,26.714.7a1.385,1.385,0,0,1-.335-.137A9.591,9.591,0,0,1,24.335-1a.193.193,0,0,1-.062-.116q0-.068.13-.15l.629-.437A.49.49,0,0,1,25.21-1.8.193.193,0,0,1,25.327-1.736ZM16.119-9.283a15.822,15.822,0,0,1,.8,2.044.4.4,0,0,1,.021.1q0,.082-.164.178L16.16-6.6a.585.585,0,0,1-.185.075q-.062,0-.1-.109a16.271,16.271,0,0,0-.786-2.133.33.33,0,0,1-.041-.109q0-.048.157-.13l.629-.321a.429.429,0,0,1,.171-.062Q16.071-9.386,16.119-9.283ZM42.5-.39A5.144,5.144,0,0,0,41.972.663a1.322,1.322,0,0,1-.144.321.214.214,0,0,1-.178.068q-.041,0-.267-.027a14.527,14.527,0,0,1-5.216-1.7A17.421,17.421,0,0,1,31.055.978,1.5,1.5,0,0,1,30.761,1Q30.6,1,30.453.643a4.091,4.091,0,0,0-.561-.991A17.175,17.175,0,0,0,34.9-1.627,9.217,9.217,0,0,1,33.03-4.061l-.9.014A.216.216,0,0,1,32-4.074a.235.235,0,0,1-.021-.123V-5.223q0-.109.027-.13a.255.255,0,0,1,.13-.021l1.9.027H38.56a1.318,1.318,0,0,0,.376-.041.66.66,0,0,1,.178-.055q.171,0,.663.492.4.383.4.581,0,.123-.171.226a1.886,1.886,0,0,0-.458.472,10.313,10.313,0,0,1-2.058,2.133A16.518,16.518,0,0,0,42.5-.39ZM38.1-4.074H34.541a6.431,6.431,0,0,0,1.641,1.764A7.255,7.255,0,0,0,38.1-4.074ZM33.338-9.235A11.025,11.025,0,0,1,34.1-7.711h1.552a8.619,8.619,0,0,0-.479-1.306.22.22,0,0,1-.027-.1q0-.082.171-.137l.854-.267a.663.663,0,0,1,.144-.027q.075,0,.137.109a8.344,8.344,0,0,1,.588,1.723h.937a12.278,12.278,0,0,0,.813-1.429,3.541,3.541,0,0,0,.205-.684q.636.185,1.217.417.212.082.212.212,0,.082-.15.239a1.837,1.837,0,0,0-.308.431q-.28.533-.451.813h.6l1.832-.027q.116,0,.137.027a.236.236,0,0,1,.021.123l-.027.7v.813L42.1-4.765a.206.206,0,0,1-.024.126.222.222,0,0,1-.133.024H40.816q-.116,0-.137-.027a.235.235,0,0,1-.021-.123V-6.392H31.588v1.627q0,.109-.027.13a.255.255,0,0,1-.13.021H30.316q-.116,0-.137-.027a.235.235,0,0,1-.021-.123l.027-1.319v-.7l-.027-.8q0-.109.027-.13a.255.255,0,0,1,.13-.021l1.832.027h.506a7.264,7.264,0,0,0-.533-1.066.234.234,0,0,1-.055-.109q0-.055.164-.109l.813-.328a.425.425,0,0,1,.144-.034Q33.269-9.358,33.338-9.235Zm6.747-2.5a6.685,6.685,0,0,1,1,.95.5.5,0,0,1,.157.294q0,.144-.226.144a4.416,4.416,0,0,0-.67.055q-2.454.349-4.143.5-2.379.226-4.806.314h-.116a.221.221,0,0,1-.205-.089,2.659,2.659,0,0,1-.123-.335,4.472,4.472,0,0,0-.437-.882q2.536-.021,5.25-.253,1.9-.171,3.138-.39A11.014,11.014,0,0,0,40.085-11.73Zm10.6,4.478-1.907.027q-.109,0-.13-.027a.235.235,0,0,1-.021-.123V-8.483q0-.116.027-.137a.235.235,0,0,1,.123-.021l1.907.027h2.953V-9.666a13.909,13.909,0,0,0-.1-1.982q.875.021,1.545.1.226.021.226.15a.952.952,0,0,1-.1.308,5.5,5.5,0,0,0-.1,1.388v1.094l1.723-.027q.109,0,.13.027a.255.255,0,0,1,.021.13v1.107q0,.109-.027.13a.235.235,0,0,1-.123.021L55.1-7.253v3.876l.041,2.693a2.409,2.409,0,0,1-.109.841,1.151,1.151,0,0,1-.355.458,4.5,4.5,0,0,1-2.235.321.712.712,0,0,1-.41-.068A.972.972,0,0,1,51.91.506a3.79,3.79,0,0,0-.424-1.094q.772.062,1.367.062.144,0,.246-.007.533,0,.533-.465V-7.253ZM44.213-5.947a12.779,12.779,0,0,0,2.816-4.765,5.323,5.323,0,0,0,.232-1,12.107,12.107,0,0,1,1.415.431q.226.082.226.212a.367.367,0,0,1-.157.253,1.338,1.338,0,0,0-.28.561q-.41,1.039-.82,1.859v7.226L47.672.937a.216.216,0,0,1-.027.137.255.255,0,0,1-.13.021H46.3q-.109,0-.13-.027a.255.255,0,0,1-.021-.13l.027-2.112V-4.354q0-1.053.014-1.62a16.486,16.486,0,0,1-1.012,1.313q-.157.185-.239.185T44.774-4.7A4.223,4.223,0,0,0,44.213-5.947Zm4.963.67a.234.234,0,0,1-.055-.109q0-.048.157-.144l.882-.506a.284.284,0,0,1,.123-.048q.048,0,.144.089a14.854,14.854,0,0,1,1.7,2.666.183.183,0,0,1,.034.089q0,.062-.164.157l-.909.608a.464.464,0,0,1-.171.082q-.048,0-.109-.13A15.006,15.006,0,0,0,49.176-5.277Zm14.143,4.7a.222.222,0,0,1-.024.133.205.205,0,0,1-.126.024H62.157q-.137,0-.137-.157v-.615H60.728V-.082q0,.15-.137.15H59.553q-.109,0-.13-.027A.235.235,0,0,1,59.4-.082L59.429-4.4V-7.444L59.4-10.808q0-.109.027-.13a.255.255,0,0,1,.13-.021l1.2.027h1.21l1.2-.027q.109,0,.13.027a.235.235,0,0,1,.021.123l-.027,2.83v3.206ZM60.728-2.461H62.02V-5.489H60.728Zm1.292-7.2H60.728v2.9H62.02Zm3.726,3.473-1.88.027q-.123,0-.144-.034a.255.255,0,0,1-.021-.13v-.971q0-.109.027-.13a.276.276,0,0,1,.137-.021l1.88.027h1V-8.859h-.656l-1.764.027a.249.249,0,0,1-.15-.027.255.255,0,0,1-.021-.13v-.978q0-.116.034-.144a.276.276,0,0,1,.137-.021l1.764.027h.656a14.641,14.641,0,0,0-.1-1.586q.7.021,1.442.1.226.021.226.137a1.1,1.1,0,0,1-.089.294,4.235,4.235,0,0,0-.068,1.053H69.1l1.777-.027q.116,0,.137.027a.276.276,0,0,1,.021.137v.978q0,.116-.027.137a.255.255,0,0,1-.13.021L69.1-8.859h-.937v1.442h1.483l1.88-.027a.232.232,0,0,1,.144.027.236.236,0,0,1,.021.123v.971a.233.233,0,0,1-.027.144.276.276,0,0,1-.137.021l-1.88-.027ZM65.8-3.555l-1.866.027q-.123,0-.144-.027a.235.235,0,0,1-.021-.123v-.984q0-.109.027-.13a.276.276,0,0,1,.137-.021l1.866.027h2.755a11.918,11.918,0,0,0-.1-1.23q.875.048,1.408.123.239.048.239.157a.586.586,0,0,1-.068.239,2.127,2.127,0,0,0-.068.711l1.4-.027a.232.232,0,0,1,.144.027.235.235,0,0,1,.021.123v.984a.205.205,0,0,1-.024.126.24.24,0,0,1-.14.024l-.185-.007q-.547-.014-1.217-.021v1.388l.014,1.723A1.357,1.357,0,0,1,69.492.745a3.593,3.593,0,0,1-1.818.308.759.759,0,0,1-.4-.062.921.921,0,0,1-.13-.362A3.254,3.254,0,0,0,66.723-.39q.649.055,1.367.055.465,0,.465-.437V-3.555Zm.055.4A11.1,11.1,0,0,1,67.14-1.538a.23.23,0,0,1,.055.116q0,.062-.123.15l-.854.588a.423.423,0,0,1-.164.082Q66-.6,65.937-.7a12.176,12.176,0,0,0-1.23-1.723.212.212,0,0,1-.068-.116q0-.055.137-.137l.786-.492a.349.349,0,0,1,.157-.062A.229.229,0,0,1,65.855-3.151Zm16.59,2.6a9.393,9.393,0,0,0,1.176.068.646.646,0,0,0,.479-.13.675.675,0,0,0,.1-.417V-6.61H81.9l-1.531.027q-.116,0-.137-.034a.276.276,0,0,1-.021-.137l.027-1.224V-9.912l-.027-1.23a.249.249,0,0,1,.027-.15.255.255,0,0,1,.13-.021l1.531.027h2.058l1.559-.027q.109,0,.13.034a.276.276,0,0,1,.021.137L85.638-9.3v5.749l.055,2.789a1.7,1.7,0,0,1-.4,1.292,1.4,1.4,0,0,1-.684.3,8.393,8.393,0,0,1-1.319.075q-.335,0-.39-.062A.969.969,0,0,1,82.78.472,4.3,4.3,0,0,0,82.446-.547Zm-.834-7.068H84.2v-.841H81.612ZM84.2-10.233H81.612v.827H84.2Zm-6.508-1.053,1.415-.027q.1,0,.116.034a.276.276,0,0,1,.021.137l-.027,1.326V-8.08l.027,1.326a.249.249,0,0,1-.027.15.178.178,0,0,1-.109.021L77.688-6.61h-2.27v4.532L75.446.909q0,.109-.027.13a.235.235,0,0,1-.123.021H74.1a.205.205,0,0,1-.126-.024.205.205,0,0,1-.024-.126l.027-2.987V-8.135l-.027-3.008a.249.249,0,0,1,.027-.15.255.255,0,0,1,.13-.021l1.647.027Zm.15,3.671v-.841h-2.42v.841Zm0-2.618h-2.42v.827h2.42ZM78.3.1h-.991Q77.2.1,77.175.068a.276.276,0,0,1-.021-.137L77.182-2.6v-1.23l-.027-1.75q0-.116.027-.137a.255.255,0,0,1,.13-.021l1.5.027H80.7l1.5-.027q.109,0,.13.027a.255.255,0,0,1,.021.13l-.027,1.511v1.388L82.35-.212a.222.222,0,0,1-.024.133.205.205,0,0,1-.126.024H81.188q-.109,0-.13-.027a.255.255,0,0,1-.021-.13V-.643H78.474v.574q0,.116-.027.14A.26.26,0,0,1,78.3.1Zm.171-1.8h2.563v-.978H78.474Zm0-2.926v.943h2.563v-.943Z" transform="translate(32 748)" fill="#333"/><path d="M4.307-11.609A2.971,2.971,0,0,1,7.09-10.063,9.074,9.074,0,0,1,7.9-5.728,8.224,8.224,0,0,1,6.841-.967,2.991,2.991,0,0,1,4.27.242,2.947,2.947,0,0,1,1.479-1.333,9.4,9.4,0,0,1,.688-5.7,8.073,8.073,0,0,1,1.758-10.43,2.983,2.983,0,0,1,4.307-11.609Zm0,1.479A1.357,1.357,0,0,0,2.974-9.053,11.179,11.179,0,0,0,2.622-5.72a10.125,10.125,0,0,0,.439,3.64,1.246,1.246,0,0,0,1.208.835A1.391,1.391,0,0,0,5.632-2.366,11.8,11.8,0,0,0,5.969-5.72a9.8,9.8,0,0,0-.439-3.6A1.255,1.255,0,0,0,4.307-10.129Zm7.668,7.837q.3,1.091,1.2,1.091a1.647,1.647,0,0,0,1.56-1.047,7.9,7.9,0,0,0,.52-3.032,2.456,2.456,0,0,1-2.336,1.362,2.726,2.726,0,0,1-2.285-1.128A4.121,4.121,0,0,1,9.872-7.61a4.191,4.191,0,0,1,1.062-3.062,3.189,3.189,0,0,1,2.388-.937,3.136,3.136,0,0,1,2.834,1.487,7.447,7.447,0,0,1,.886,4q0,3.545-1.165,5.1A3.219,3.219,0,0,1,13.139.242,2.872,2.872,0,0,1,10.129-1.6Zm3.193-4.5q-.022-3.376-1.772-3.376-1.619,0-1.619,2.52a2.8,2.8,0,0,0,.483,1.765,1.326,1.326,0,0,0,1.091.527A1.991,1.991,0,0,0,15.168-6.8ZM21.759-8.2V-6.13H19.613V-8.2Zm0,6.16V.029H19.613V-2.043Zm6.122-9.565a2.971,2.971,0,0,1,2.783,1.545,9.074,9.074,0,0,1,.813,4.336A8.224,8.224,0,0,1,30.416-.967,2.991,2.991,0,0,1,27.845.242a2.947,2.947,0,0,1-2.791-1.575A9.4,9.4,0,0,1,24.263-5.7a8.073,8.073,0,0,1,1.069-4.731A2.983,2.983,0,0,1,27.882-11.609Zm0,1.479a1.357,1.357,0,0,0-1.333,1.077A11.179,11.179,0,0,0,26.2-5.72a10.125,10.125,0,0,0,.439,3.64,1.246,1.246,0,0,0,1.208.835,1.391,1.391,0,0,0,1.362-1.121,11.8,11.8,0,0,0,.337-3.354,9.8,9.8,0,0,0-.439-3.6A1.255,1.255,0,0,0,27.882-10.129Zm9.2-1.479a2.971,2.971,0,0,1,2.783,1.545,9.074,9.074,0,0,1,.813,4.336A8.224,8.224,0,0,1,39.614-.967,2.991,2.991,0,0,1,37.044.242a2.947,2.947,0,0,1-2.791-1.575A9.4,9.4,0,0,1,33.462-5.7a8.073,8.073,0,0,1,1.069-4.731A2.983,2.983,0,0,1,37.08-11.609Zm0,1.479a1.357,1.357,0,0,0-1.333,1.077A11.179,11.179,0,0,0,35.4-5.72a10.125,10.125,0,0,0,.439,3.64,1.246,1.246,0,0,0,1.208.835,1.391,1.391,0,0,0,1.362-1.121,11.8,11.8,0,0,0,.337-3.354,9.8,9.8,0,0,0-.439-3.6A1.255,1.255,0,0,0,37.08-10.129ZM52.262-5.251v1.472h-4.38V-5.251Zm11.915-6.24V-1.428h2.131V.029H60.142V-1.428H62.39V-9.587a8.262,8.262,0,0,1-2.117,1.018l-.3-1.575a8.48,8.48,0,0,0,2.666-1.348Zm4.6,3.047A3.508,3.508,0,0,1,70.058-10.9a3.538,3.538,0,0,1,2.249-.71A3.523,3.523,0,0,1,74.9-10.7a2.911,2.911,0,0,1,.828,2.175A3.534,3.534,0,0,1,75.156-6.6a10.839,10.839,0,0,1-1.743,1.948,12.489,12.489,0,0,0-2.791,3.179h5.149v1.5h-7.1V-1.3a15.256,15.256,0,0,1,3.274-4.248,8.866,8.866,0,0,0,1.531-1.772,2.44,2.44,0,0,0,.3-1.216,1.58,1.58,0,0,0-.461-1.223,1.47,1.47,0,0,0-1.04-.366q-1.487,0-1.626,2.073ZM80.539-8.2V-6.13H78.393V-8.2Zm0,6.16V.029H78.393V-2.043Zm6.122-9.565a2.971,2.971,0,0,1,2.783,1.545,9.074,9.074,0,0,1,.813,4.336A8.224,8.224,0,0,1,89.2-.967,2.991,2.991,0,0,1,86.624.242a2.947,2.947,0,0,1-2.791-1.575A9.4,9.4,0,0,1,83.043-5.7a8.073,8.073,0,0,1,1.069-4.731A2.983,2.983,0,0,1,86.661-11.609Zm0,1.479a1.357,1.357,0,0,0-1.333,1.077,11.179,11.179,0,0,0-.352,3.333,10.125,10.125,0,0,0,.439,3.64,1.246,1.246,0,0,0,1.208.835,1.391,1.391,0,0,0,1.362-1.121,11.8,11.8,0,0,0,.337-3.354,9.8,9.8,0,0,0-.439-3.6A1.255,1.255,0,0,0,86.661-10.129Zm9.2-1.479a2.971,2.971,0,0,1,2.783,1.545,9.074,9.074,0,0,1,.813,4.336A8.224,8.224,0,0,1,98.394-.967,2.991,2.991,0,0,1,95.823.242a2.947,2.947,0,0,1-2.791-1.575A9.4,9.4,0,0,1,92.241-5.7a8.073,8.073,0,0,1,1.069-4.731A2.983,2.983,0,0,1,95.86-11.609Zm0,1.479a1.357,1.357,0,0,0-1.333,1.077,11.179,11.179,0,0,0-.352,3.333,10.125,10.125,0,0,0,.439,3.64,1.246,1.246,0,0,0,1.208.835,1.391,1.391,0,0,0,1.362-1.121,11.8,11.8,0,0,0,.337-3.354,9.8,9.8,0,0,0-.439-3.6A1.255,1.255,0,0,0,95.86-10.129Z" transform="translate(32 784)" fill="#999"/><path d="M5.4-11.492V-1.428H7.529V.029H1.362V-1.428H3.611V-9.587A8.262,8.262,0,0,1,1.494-8.569l-.3-1.575A8.48,8.48,0,0,0,3.86-11.492Zm11.147.073v1.5H12.018l-.1,2.307a10.36,10.36,0,0,1-.088,1.084A2.215,2.215,0,0,1,13.8-7.515a2.94,2.94,0,0,1,2.439,1.157,4.12,4.12,0,0,1,.791,2.593,4.058,4.058,0,0,1-1.15,3.047,3.475,3.475,0,0,1-2.512.959,3.781,3.781,0,0,1-2.38-.7,3.07,3.07,0,0,1-1.1-1.787l1.831-.557q.3,1.589,1.633,1.589a1.49,1.49,0,0,0,1.34-.754,3.268,3.268,0,0,0,.417-1.765,2.778,2.778,0,0,0-.5-1.794,1.435,1.435,0,0,0-1.172-.527,1.594,1.594,0,0,0-1.619,1.289L10.261-5l.227-6.423ZM21.759-8.2V-6.13H19.613V-8.2Zm0,6.16V.029H19.613V-2.043Zm6.122-9.565a2.971,2.971,0,0,1,2.783,1.545,9.074,9.074,0,0,1,.813,4.336A8.224,8.224,0,0,1,30.416-.967,2.991,2.991,0,0,1,27.845.242a2.947,2.947,0,0,1-2.791-1.575A9.4,9.4,0,0,1,24.263-5.7a8.073,8.073,0,0,1,1.069-4.731A2.983,2.983,0,0,1,27.882-11.609Zm0,1.479a1.357,1.357,0,0,0-1.333,1.077A11.179,11.179,0,0,0,26.2-5.72a10.125,10.125,0,0,0,.439,3.64,1.246,1.246,0,0,0,1.208.835,1.391,1.391,0,0,0,1.362-1.121,11.8,11.8,0,0,0,.337-3.354,9.8,9.8,0,0,0-.439-3.6A1.255,1.255,0,0,0,27.882-10.129Zm9.2-1.479a2.971,2.971,0,0,1,2.783,1.545,9.074,9.074,0,0,1,.813,4.336A8.224,8.224,0,0,1,39.614-.967,2.991,2.991,0,0,1,37.044.242a2.947,2.947,0,0,1-2.791-1.575A9.4,9.4,0,0,1,33.462-5.7a8.073,8.073,0,0,1,1.069-4.731A2.983,2.983,0,0,1,37.08-11.609Zm0,1.479a1.357,1.357,0,0,0-1.333,1.077A11.179,11.179,0,0,0,35.4-5.72a10.125,10.125,0,0,0,.439,3.64,1.246,1.246,0,0,0,1.208.835,1.391,1.391,0,0,0,1.362-1.121,11.8,11.8,0,0,0,.337-3.354,9.8,9.8,0,0,0-.439-3.6A1.255,1.255,0,0,0,37.08-10.129ZM52.262-5.251v1.472h-4.38V-5.251Zm11.915-6.24V-1.428h2.131V.029H60.142V-1.428H62.39V-9.587a8.262,8.262,0,0,1-2.117,1.018l-.3-1.575a8.48,8.48,0,0,0,2.666-1.348Zm9.528,5.383a4.273,4.273,0,0,1,1.824,1.421,3.181,3.181,0,0,1,.447,1.75,2.874,2.874,0,0,1-1.143,2.41,4.031,4.031,0,0,1-2.549.769A3.964,3.964,0,0,1,69.458-.7a2.849,2.849,0,0,1-.879-2.175,2.533,2.533,0,0,1,.608-1.729A5.178,5.178,0,0,1,70.8-5.735,3.734,3.734,0,0,1,69.231-7.09a3.055,3.055,0,0,1-.381-1.567,2.686,2.686,0,0,1,1.062-2.2,3.66,3.66,0,0,1,2.358-.754,3.642,3.642,0,0,1,2.6.916,2.59,2.59,0,0,1,.85,1.978A2.756,2.756,0,0,1,73.706-6.108ZM72.6-6.65a2.668,2.668,0,0,0,1.091-.923,2.064,2.064,0,0,0,.256-1.069,1.492,1.492,0,0,0-.542-1.216,1.728,1.728,0,0,0-1.135-.374,1.653,1.653,0,0,0-1.245.469,1.506,1.506,0,0,0-.4,1.091,1.488,1.488,0,0,0,.388,1.055,3.776,3.776,0,0,0,1.172.776Zm-.659,1.487A3.609,3.609,0,0,0,70.7-4.153,1.994,1.994,0,0,0,70.366-3a1.782,1.782,0,0,0,.579,1.406,1.925,1.925,0,0,0,1.326.454,1.95,1.95,0,0,0,1.465-.527,1.658,1.658,0,0,0,.454-1.216,1.676,1.676,0,0,0-.447-1.194,4.867,4.867,0,0,0-1.37-.879Zm8.6-3.04V-6.13H78.393V-8.2Zm0,6.16V.029H78.393V-2.043Zm6.122-9.565a2.971,2.971,0,0,1,2.783,1.545,9.074,9.074,0,0,1,.813,4.336A8.224,8.224,0,0,1,89.2-.967,2.991,2.991,0,0,1,86.624.242a2.947,2.947,0,0,1-2.791-1.575A9.4,9.4,0,0,1,83.043-5.7a8.073,8.073,0,0,1,1.069-4.731A2.983,2.983,0,0,1,86.661-11.609Zm0,1.479a1.357,1.357,0,0,0-1.333,1.077,11.179,11.179,0,0,0-.352,3.333,10.125,10.125,0,0,0,.439,3.64,1.246,1.246,0,0,0,1.208.835,1.391,1.391,0,0,0,1.362-1.121,11.8,11.8,0,0,0,.337-3.354,9.8,9.8,0,0,0-.439-3.6A1.255,1.255,0,0,0,86.661-10.129Zm9.2-1.479a2.971,2.971,0,0,1,2.783,1.545,9.074,9.074,0,0,1,.813,4.336A8.224,8.224,0,0,1,98.394-.967,2.991,2.991,0,0,1,95.823.242a2.947,2.947,0,0,1-2.791-1.575A9.4,9.4,0,0,1,92.241-5.7a8.073,8.073,0,0,1,1.069-4.731A2.983,2.983,0,0,1,95.86-11.609Zm0,1.479a1.357,1.357,0,0,0-1.333,1.077,11.179,11.179,0,0,0-.352,3.333,10.125,10.125,0,0,0,.439,3.64,1.246,1.246,0,0,0,1.208.835,1.391,1.391,0,0,0,1.362-1.121,11.8,11.8,0,0,0,.337-3.354,9.8,9.8,0,0,0-.439-3.6A1.255,1.255,0,0,0,95.86-10.129Z" transform="translate(32 820)" fill="#999"/><path d="M7.465-.629q.738.068,1.593.068a.435.435,0,0,0,.492-.492V-3.5h-5A7.891,7.891,0,0,1,3.808-.95,9.143,9.143,0,0,1,2.536.841q-.219.239-.294.239-.1,0-.328-.226A2.958,2.958,0,0,0,.909.2,7.822,7.822,0,0,0,2.331-1.483a5.98,5.98,0,0,0,.7-2.119A22.608,22.608,0,0,0,3.22-6.966V-9.03l-.027-1.9a.249.249,0,0,1,.027-.15.235.235,0,0,1,.123-.021l1.866.027H9.1l1.846-.027q.116,0,.137.034a.276.276,0,0,1,.021.137l-.027,1.9v5.5l.041,2.8A1.742,1.742,0,0,1,10.671.574a1.5,1.5,0,0,1-.813.335A11.473,11.473,0,0,1,8.347.978.777.777,0,0,1,7.93.916a.792.792,0,0,1-.1-.369A3.4,3.4,0,0,0,7.465-.629ZM4.689-4.86H9.55V-6.631H4.744Q4.717-5.435,4.689-4.86ZM9.55-9.687H4.744v1.7H9.55ZM44.212-.451A3.988,3.988,0,0,0,43.44.643q-.157.335-.28.335a.878.878,0,0,1-.321-.123,9.108,9.108,0,0,1-4.9-6.214,8.966,8.966,0,0,1-.362,1.395A7.376,7.376,0,0,1,35.654-.957,10.58,10.58,0,0,1,32.817.9,1.45,1.45,0,0,1,32.482,1q-.13,0-.28-.321a2.821,2.821,0,0,0-.759-.964A9.306,9.306,0,0,0,34.758-2.27a6.632,6.632,0,0,0,1.559-2.563,15.8,15.8,0,0,0,.615-5.052,11.056,11.056,0,0,0-.1-1.668q.69.021,1.572.1.253.041.253.191a.736.736,0,0,1-.1.28,3.958,3.958,0,0,0-.1,1.025v.431Q38.737-2.652,44.212-.451Zm-10.179-8.5,1.08.321q.171.055.171.13a.4.4,0,0,1-.021.1,12.675,12.675,0,0,1-1.62,3.767.188.188,0,0,1-.144.089.579.579,0,0,1-.171-.048l-1-.5q-.164-.082-.164-.157a.2.2,0,0,1,.055-.109,8.173,8.173,0,0,0,1.552-3.493q.034-.13.109-.13A.817.817,0,0,1,34.033-8.948Zm5.988,3.473a11.112,11.112,0,0,0,1.545-2.871,3.819,3.819,0,0,0,.219-.793q.861.294,1.374.526.239.123.239.239a.308.308,0,0,1-.123.226,1.114,1.114,0,0,0-.308.444,17.6,17.6,0,0,1-1.388,2.55q-.191.294-.267.294a.814.814,0,0,1-.335-.171A5.193,5.193,0,0,0,40.022-5.476Zm35.093,3.63a3.553,3.553,0,0,0-.786,1.019q-.164.294-.253.294A.871.871,0,0,1,73.741-.7a11.878,11.878,0,0,1-2.8-2.693,10.945,10.945,0,0,1-1.634-3q.007,1.053.062,3.315.048,1.736.048,2.379A1.409,1.409,0,0,1,68.853.588,4.387,4.387,0,0,1,66.8.909a.759.759,0,0,1-.4-.062.921.921,0,0,1-.144-.355,2.922,2.922,0,0,0-.458-1.08q.485.048,1.032.048.178,0,.355-.007.7-.021.7-.444v-9.03a10.058,10.058,0,0,0-.1-1.6q1.1.034,1.538.082.239.027.239.157a.627.627,0,0,1-.041.205.879.879,0,0,0-.055.157,3.659,3.659,0,0,0-.089.984v.643A11.211,11.211,0,0,0,70.466-6.48a15.591,15.591,0,0,0,1.948-2.03,3.614,3.614,0,0,0,.472-.745,9.554,9.554,0,0,1,1.189.813q.2.164.2.28,0,.137-.2.239a3.251,3.251,0,0,0-.738.629,19.881,19.881,0,0,1-2.146,1.976A10.653,10.653,0,0,0,75.115-1.846Zm-13.036.212a10.015,10.015,0,0,0,3.685-5.011H64.191l-1.456.027q-.109,0-.13-.027a.235.235,0,0,1-.021-.123V-7.875q0-.116.027-.137a.235.235,0,0,1,.123-.021L64.191-8h1.88a.783.783,0,0,0,.335-.055l.1-.048a.161.161,0,0,1,.068-.021q.205,0,.588.417.451.451.451.636a.409.409,0,0,1-.144.28,1.294,1.294,0,0,0-.273.5A12.136,12.136,0,0,1,63.453-.711a.809.809,0,0,1-.308.2q-.1,0-.28-.28A2.9,2.9,0,0,0,62.079-1.634ZM95.285-7.1l-1.791.027q-.116,0-.144-.034a.276.276,0,0,1-.021-.137V-8.374a.232.232,0,0,1,.027-.144.276.276,0,0,1,.137-.021l1.791.027h3.24V-9.844a11.153,11.153,0,0,0-.1-1.818q.923.027,1.572.1.219.027.219.144a.664.664,0,0,1-.041.2l-.055.164a6.888,6.888,0,0,0-.055,1.176v1.374h3.466l1.8-.027q.109,0,.13.034a.255.255,0,0,1,.021.13v1.135a.249.249,0,0,1-.027.15.235.235,0,0,1-.123.021l-1.8-.027h-2.967A14.443,14.443,0,0,0,106-1.846a3.783,3.783,0,0,0-.718,1.025q-.164.335-.26.335a.627.627,0,0,1-.294-.137,14.523,14.523,0,0,1-4.737-5.312l.116,6.9q0,.1-.034.116a.276.276,0,0,1-.137.021H98.648q-.123,0-.144-.027a.178.178,0,0,1-.021-.109q0-.157.021-1.176.075-3.015.089-5.517A13.778,13.778,0,0,1,94.184-.6a.653.653,0,0,1-.308.157q-.082,0-.267-.308a3.583,3.583,0,0,0-.786-.984,12.641,12.641,0,0,0,3.11-2.447A12.282,12.282,0,0,0,97.992-7.1ZM126.153.588l-1.791.027q-.123,0-.144-.027t-.027-.109V-.588q0-.109.034-.13a.276.276,0,0,1,.137-.021l1.791.027h3.192V-3.767h-2.673l-1.88.027a.232.232,0,0,1-.144-.027.235.235,0,0,1-.021-.123V-4.942q0-.109.027-.13a.3.3,0,0,1,.137-.021l1.88.027h2.673V-6.357H128.8l-1.723.021q-.15,0-.15-.144v-.827A17.665,17.665,0,0,1,124.779-6.2a1.057,1.057,0,0,1-.335.109q-.109,0-.28-.321a2.675,2.675,0,0,0-.67-.827,12.208,12.208,0,0,0,5.435-3.767,4.063,4.063,0,0,0,.554-.923,8.561,8.561,0,0,1,1.511.294q.253.075.253.226,0,.089-.137.2a.318.318,0,0,1-.082.055,11.613,11.613,0,0,0,5.906,3.65,3.233,3.233,0,0,0-.6,1q-.157.349-.267.349a1.464,1.464,0,0,1-.335-.1,15.957,15.957,0,0,1-2.242-1.066v.841q0,.144-.15.144L131.6-6.357h-.759v1.292h2.912l1.873-.027q.116,0,.137.027a.235.235,0,0,1,.021.123V-3.89q0,.157-.055.157l-.1-.007-1.873-.027h-2.912V-.711h3.391l1.8-.027q.109,0,.13.027a.235.235,0,0,1,.021.123V.479q0,.137-.15.137l-1.8-.027Zm1.292-8.23q.26.014,1.354.014h2.8q1.087,0,1.354-.014a10.968,10.968,0,0,1-2.782-2.481A12.38,12.38,0,0,1,127.445-7.643Zm4.32,6.371a8.73,8.73,0,0,0,.909-1.586,3.645,3.645,0,0,0,.267-.738,6.1,6.1,0,0,1,1.176.444q.253.13.253.239t-.171.226a1.486,1.486,0,0,0-.321.444A10.2,10.2,0,0,1,133.139-1q-.144.185-.226.185a1.1,1.1,0,0,1-.321-.109A3.656,3.656,0,0,0,131.765-1.271Zm-4.491-2.16a10.9,10.9,0,0,1,1,1.853.316.316,0,0,1,.027.109q0,.062-.157.137l-.868.438a.729.729,0,0,1-.185.055q-.048,0-.1-.116a8.291,8.291,0,0,0-.95-1.914.2.2,0,0,1-.055-.109q0-.048.164-.13l.8-.376a.523.523,0,0,1,.171-.055Q127.192-3.541,127.274-3.432ZM156.646.4,154.9.431q-.137,0-.137-.15V-.889q0-.15.137-.15l1.75.027H160.1V-5.783h-2.229l-1.914.027a.216.216,0,0,1-.137-.027.235.235,0,0,1-.021-.123V-7.075q0-.109.034-.13a.214.214,0,0,1,.123-.021l1.914.027H160.1V-9.365a16.024,16.024,0,0,0-.109-2.2q1.019.027,1.634.1.226.027.226.171a.881.881,0,0,1-.082.308,7.19,7.19,0,0,0-.089,1.6V-7.2h2.461l1.907-.027q.123,0,.144.027a.235.235,0,0,1,.021.123v1.169q0,.109-.027.13a.276.276,0,0,1-.137.021l-1.907-.027h-2.461v4.771h3.685l1.75-.027q.137,0,.137.15V.28q0,.15-.137.15L165.368.4Zm32.078.479h-1.251a.205.205,0,0,1-.126-.024.206.206,0,0,1-.024-.126l.027-4.983V-6.959l-.027-3.657a.232.232,0,0,1,.027-.144.255.255,0,0,1,.13-.021l1.928.027h4.806l1.935-.027q.109,0,.13.034a.255.255,0,0,1,.021.13l-.027,3.24v3.11L196.3.656q0,.116-.027.137a.235.235,0,0,1-.123.021H194.9q-.116,0-.137-.027a.255.255,0,0,1-.021-.13V-.027h-5.872V.731q0,.109-.027.13A.235.235,0,0,1,188.724.882Zm.15-2.3h5.872V-4.8h-5.872Zm0-7.95v3.192h5.872V-9.365ZM207.186-6.72a1.339,1.339,0,0,1,1.039.465,1.342,1.342,0,0,1,.362.937,1.339,1.339,0,0,1-.465,1.039,1.342,1.342,0,0,1-.937.362,1.339,1.339,0,0,1-1.039-.465,1.342,1.342,0,0,1-.362-.937,1.339,1.339,0,0,1,.465-1.039A1.342,1.342,0,0,1,207.186-6.72Zm12.8,6.679a4.617,4.617,0,0,0,2.42-1.9,6.446,6.446,0,0,0,.6-3.09q0-.089-.007-.294l-.841.027-.267.007q-.109,0-.13-.027a.255.255,0,0,1-.021-.13l.027-1.415V-9.42l-.027-1.4a.216.216,0,0,1,.027-.137.235.235,0,0,1,.123-.021l1.723.027h2.83l1.716-.027q.123,0,.144.027a.255.255,0,0,1,.021.13l-.021,1.4v2.557l.021,1.415q0,.116-.027.137a.276.276,0,0,1-.137.021l-.2-.007-1.265-.027v4.231q0,.376.109.458a.905.905,0,0,0,.5.1.5.5,0,0,0,.465-.2,4.958,4.958,0,0,0,.164-1.675,3.141,3.141,0,0,0,.9.41.963.963,0,0,1,.3.116.307.307,0,0,1,.048.2v.144a5.746,5.746,0,0,1-.2,1.477,1.244,1.244,0,0,1-.349.554,2.465,2.465,0,0,1-1.483.321,2.875,2.875,0,0,1-1.47-.239,1.291,1.291,0,0,1-.39-1.114V-5.325h-.9a8.953,8.953,0,0,1-.827,4.122A5.122,5.122,0,0,1,221.4.868a1.1,1.1,0,0,1-.321.123q-.1,0-.308-.28A3.8,3.8,0,0,0,219.982-.041Zm6.877-6.583V-9.632h-3.691v3.008Zm-5.052,2.352a3.517,3.517,0,0,0-.725,1.019q-.109.171-.185.171a.53.53,0,0,1-.253-.15,8.611,8.611,0,0,1-1.06-1.271v3.4l.027,2.071q0,.109-.034.137a.276.276,0,0,1-.137.021h-1.107q-.123,0-.144-.027a.255.255,0,0,1-.021-.13l.027-2.071V-3.979q-.554.567-1.251,1.217-.219.2-.308.2t-.15-.226A3.785,3.785,0,0,0,216-3.917a9.538,9.538,0,0,0,3.527-4.231H218l-1.442.027a.216.216,0,0,1-.137-.027.235.235,0,0,1-.021-.123V-9.311q0-.109.034-.137a.214.214,0,0,1,.123-.021L218-9.434h.2v-.574a7.966,7.966,0,0,0-.144-1.709,13.633,13.633,0,0,1,1.518.123q.226.027.226.144a.824.824,0,0,1-.089.294,2.97,2.97,0,0,0-.123,1.087v.636h.444a.731.731,0,0,0,.335-.062.432.432,0,0,1,.185-.055q.15,0,.54.362.328.308.328.479a.408.408,0,0,1-.2.308,1.48,1.48,0,0,0-.335.52,11.5,11.5,0,0,1-1.019,1.859A7.1,7.1,0,0,0,221.807-4.272Z" transform="translate(157 748)" fill="#333"/><path d="M1.26-5.268a17.719,17.719,0,0,0,2.59.146H7.717q.568,0,1.465-.018,1.143-.018,1.295-.023h.059q.158,0,.158.17.018.275.018.568t-.018.563q0,.182-.17.182h-.047Q8.678-3.7,7.8-3.7H3.48l-1.764.146a.264.264,0,0,1-.275-.252A11.411,11.411,0,0,1,1.26-5.268Z" transform="translate(358 785)" fill="#32b584"/><path d="M6-9.6,11.432-.182H.563Zm0,.826L1.283-.6h9.434Z" transform="translate(312 785)" fill="#32b584"/><path d="M-206.323-9.6l5.432,9.422H-211.76Zm0,.826L-211.039-.6h9.434Zm17.834,3.246a.924.924,0,0,1,.709.322.931.931,0,0,1,.252.639.96.96,0,0,1-.322.732.917.917,0,0,1-.639.252.953.953,0,0,1-.732-.328.953.953,0,0,1-.252-.656.917.917,0,0,1,.328-.709A.953.953,0,0,1-188.489-5.531Zm-4,0a.924.924,0,0,1,.709.322.931.931,0,0,1,.252.639.96.96,0,0,1-.322.732.917.917,0,0,1-.639.252.953.953,0,0,1-.732-.328.953.953,0,0,1-.252-.656.917.917,0,0,1,.328-.709A.953.953,0,0,1-192.485-5.531Zm8,0a.924.924,0,0,1,.709.322.931.931,0,0,1,.252.639.96.96,0,0,1-.322.732.917.917,0,0,1-.639.252.935.935,0,0,1-.727-.328.941.941,0,0,1-.258-.656.917.917,0,0,1,.328-.709A.953.953,0,0,1-184.481-5.531Zm12.121-3.662v8.051h1.705V.023h-4.934V-1.143h1.8V-7.67a6.61,6.61,0,0,1-1.693.814l-.24-1.26a6.784,6.784,0,0,0,2.133-1.078Zm7.206-.094a2.376,2.376,0,0,1,2.227,1.236,7.259,7.259,0,0,1,.65,3.469,6.579,6.579,0,0,1-.85,3.809,2.393,2.393,0,0,1-2.057.967,2.357,2.357,0,0,1-2.232-1.26,7.519,7.519,0,0,1-.633-3.492,6.459,6.459,0,0,1,.855-3.785A2.387,2.387,0,0,1-165.155-9.287Zm0,1.184a1.085,1.085,0,0,0-1.066.861,8.943,8.943,0,0,0-.281,2.666,8.1,8.1,0,0,0,.352,2.912,1,1,0,0,0,.967.668,1.113,1.113,0,0,0,1.09-.9,9.436,9.436,0,0,0,.27-2.684,7.844,7.844,0,0,0-.352-2.877A1,1,0,0,0-165.155-8.1Zm7.323,1.541V-4.9h-1.717V-6.562Zm0,4.928V.023h-1.717V-1.635Zm5.618-7.652a2.376,2.376,0,0,1,2.227,1.236,7.259,7.259,0,0,1,.65,3.469,6.579,6.579,0,0,1-.85,3.809,2.393,2.393,0,0,1-2.057.967,2.357,2.357,0,0,1-2.232-1.26,7.519,7.519,0,0,1-.633-3.492,6.459,6.459,0,0,1,.855-3.785A2.387,2.387,0,0,1-152.214-9.287Zm0,1.184a1.085,1.085,0,0,0-1.066.861,8.943,8.943,0,0,0-.281,2.666,8.1,8.1,0,0,0,.352,2.912,1,1,0,0,0,.967.668,1.113,1.113,0,0,0,1.09-.9,9.436,9.436,0,0,0,.27-2.684,7.844,7.844,0,0,0-.352-2.877A1,1,0,0,0-152.214-8.1Zm8.079-1.184a2.376,2.376,0,0,1,2.227,1.236,7.259,7.259,0,0,1,.65,3.469,6.579,6.579,0,0,1-.85,3.809,2.393,2.393,0,0,1-2.057.967,2.357,2.357,0,0,1-2.232-1.26,7.519,7.519,0,0,1-.633-3.492,6.459,6.459,0,0,1,.855-3.785A2.387,2.387,0,0,1-144.135-9.287Zm0,1.184a1.085,1.085,0,0,0-1.066.861,8.943,8.943,0,0,0-.281,2.666,8.1,8.1,0,0,0,.352,2.912,1,1,0,0,0,.967.668,1.113,1.113,0,0,0,1.09-.9,9.436,9.436,0,0,0,.27-2.684,7.844,7.844,0,0,0-.352-2.877A1,1,0,0,0-144.135-8.1Zm8.964,3.9v1.178h-3.5V-4.2Zm6.35-4.992v8.051h1.705V.023h-4.934V-1.143h1.8V-7.67a6.61,6.61,0,0,1-1.693.814l-.24-1.26a6.784,6.784,0,0,0,2.133-1.078Zm4.4,2.438A2.806,2.806,0,0,1-123.4-8.719a2.83,2.83,0,0,1,1.8-.568,2.819,2.819,0,0,1,2.074.727,2.329,2.329,0,0,1,.662,1.74,2.827,2.827,0,0,1-.457,1.541,8.672,8.672,0,0,1-1.395,1.559,9.991,9.991,0,0,0-2.232,2.543h4.119v1.2H-124.5V-1.043a12.205,12.205,0,0,1,2.619-3.4,7.093,7.093,0,0,0,1.225-1.418,1.952,1.952,0,0,0,.24-.973,1.264,1.264,0,0,0-.369-.979,1.176,1.176,0,0,0-.832-.293q-1.189,0-1.3,1.658Zm10.13.193V-4.9h-1.717V-6.562Zm0,4.928V.023h-1.717V-1.635Zm5.618-7.652a2.376,2.376,0,0,1,2.227,1.236,7.259,7.259,0,0,1,.65,3.469,6.579,6.579,0,0,1-.85,3.809A2.393,2.393,0,0,1-108.7.193a2.357,2.357,0,0,1-2.232-1.26,7.519,7.519,0,0,1-.633-3.492,6.459,6.459,0,0,1,.855-3.785A2.387,2.387,0,0,1-108.674-9.287Zm0,1.184a1.085,1.085,0,0,0-1.066.861,8.943,8.943,0,0,0-.281,2.666,8.1,8.1,0,0,0,.352,2.912A1,1,0,0,0-108.7-1a1.113,1.113,0,0,0,1.09-.9,9.436,9.436,0,0,0,.27-2.684,7.844,7.844,0,0,0-.352-2.877A1,1,0,0,0-108.674-8.1Zm8.079-1.184a2.376,2.376,0,0,1,2.227,1.236,7.259,7.259,0,0,1,.65,3.469,6.579,6.579,0,0,1-.85,3.809,2.393,2.393,0,0,1-2.057.967,2.357,2.357,0,0,1-2.232-1.26,7.519,7.519,0,0,1-.633-3.492,6.459,6.459,0,0,1,.855-3.785A2.387,2.387,0,0,1-100.595-9.287Zm0,1.184a1.085,1.085,0,0,0-1.066.861,8.943,8.943,0,0,0-.281,2.666,8.1,8.1,0,0,0,.352,2.912,1,1,0,0,0,.967.668,1.113,1.113,0,0,0,1.09-.9,9.436,9.436,0,0,0,.27-2.684,7.844,7.844,0,0,0-.352-2.877A1,1,0,0,0-100.595-8.1Zm15.08-2.156L-90.4,1.154h-.756l4.887-11.414ZM-75.2-9.193v8.051h1.705V.023h-4.934V-1.143h1.8V-7.67a6.61,6.61,0,0,1-1.693.814l-.24-1.26A6.784,6.784,0,0,0-76.43-9.193Zm4.346,1.881a2.513,2.513,0,0,1,1.09-1.535,3.09,3.09,0,0,1,1.682-.439,2.891,2.891,0,0,1,2.092.738,2.075,2.075,0,0,1,.656,1.564,2.028,2.028,0,0,1-.521,1.436,2.142,2.142,0,0,1-1.23.627v.082a2.419,2.419,0,0,1,1.494.879,2.3,2.3,0,0,1,.439,1.43,2.544,2.544,0,0,1-.914,2.063,3.033,3.033,0,0,1-2.016.662,2.7,2.7,0,0,1-2.912-2.027l1.471-.434a1.751,1.751,0,0,0,.545,1.031,1.372,1.372,0,0,0,.885.264,1.3,1.3,0,0,0,1.072-.463,1.664,1.664,0,0,0,.334-1.084q0-1.658-1.775-1.658h-.7V-5.4h.633q1.682,0,1.682-1.441a1.245,1.245,0,0,0-.387-1,1.278,1.278,0,0,0-.873-.287,1.161,1.161,0,0,0-.873.352,1.59,1.59,0,0,0-.4.908Zm10.182.75V-4.9h-1.717V-6.562Zm0,4.928V.023h-1.717V-1.635Zm5.618-7.652a2.376,2.376,0,0,1,2.227,1.236,7.259,7.259,0,0,1,.65,3.469,6.579,6.579,0,0,1-.85,3.809,2.393,2.393,0,0,1-2.057.967,2.357,2.357,0,0,1-2.232-1.26,7.519,7.519,0,0,1-.633-3.492,6.459,6.459,0,0,1,.855-3.785A2.387,2.387,0,0,1-55.052-9.287Zm0,1.184a1.085,1.085,0,0,0-1.066.861A8.943,8.943,0,0,0-56.4-4.576a8.1,8.1,0,0,0,.352,2.912A1,1,0,0,0-55.082-1a1.113,1.113,0,0,0,1.09-.9,9.436,9.436,0,0,0,.27-2.684,7.844,7.844,0,0,0-.352-2.877A1,1,0,0,0-55.052-8.1Zm8.079-1.184a2.376,2.376,0,0,1,2.227,1.236,7.259,7.259,0,0,1,.65,3.469,6.579,6.579,0,0,1-.85,3.809A2.393,2.393,0,0,1-47,.193a2.357,2.357,0,0,1-2.232-1.26,7.519,7.519,0,0,1-.633-3.492,6.459,6.459,0,0,1,.855-3.785A2.387,2.387,0,0,1-46.973-9.287Zm0,1.184a1.085,1.085,0,0,0-1.066.861,8.943,8.943,0,0,0-.281,2.666,8.1,8.1,0,0,0,.352,2.912A1,1,0,0,0-47-1a1.113,1.113,0,0,0,1.09-.9,9.436,9.436,0,0,0,.27-2.684,7.844,7.844,0,0,0-.352-2.877A1,1,0,0,0-46.973-8.1Zm8.964,3.9v1.178h-3.5V-4.2Zm6.35-4.992v8.051h1.705V.023h-4.934V-1.143h1.8V-7.67a6.61,6.61,0,0,1-1.693.814l-.24-1.26A6.784,6.784,0,0,0-32.89-9.193Zm9.925,1.4-1.465.545q-.193-.9-.955-.9-1.582,0-1.658,3.24a2.031,2.031,0,0,1,1.869-1.078,2.12,2.12,0,0,1,1.811.9,3.414,3.414,0,0,1,.58,2.068,3.339,3.339,0,0,1-.885,2.461,2.577,2.577,0,0,1-1.91.756A2.472,2.472,0,0,1-26.58-.99,6,6,0,0,1-27.289-4.2q0-5.086,3.17-5.086A2.353,2.353,0,0,1-21.735-7.793ZM-25.8-3.674q0,2.713,1.441,2.713,1.295,0,1.295-2.016,0-1.857-1.236-1.857A1.712,1.712,0,0,0-25.8-3.674Zm8.671-2.889V-4.9h-1.717V-6.562Zm0,4.928V.023h-1.717V-1.635Zm5.618-7.652A2.376,2.376,0,0,1-9.286-8.051a7.259,7.259,0,0,1,.65,3.469,6.579,6.579,0,0,1-.85,3.809,2.393,2.393,0,0,1-2.057.967,2.357,2.357,0,0,1-2.232-1.26,7.519,7.519,0,0,1-.633-3.492,6.459,6.459,0,0,1,.855-3.785A2.387,2.387,0,0,1-11.512-9.287Zm0,1.184a1.085,1.085,0,0,0-1.066.861,8.943,8.943,0,0,0-.281,2.666,8.1,8.1,0,0,0,.352,2.912A1,1,0,0,0-11.542-1a1.113,1.113,0,0,0,1.09-.9,9.436,9.436,0,0,0,.27-2.684,7.844,7.844,0,0,0-.352-2.877A1,1,0,0,0-11.512-8.1Zm8.079-1.184A2.376,2.376,0,0,1-1.207-8.051a7.259,7.259,0,0,1,.65,3.469,6.579,6.579,0,0,1-.85,3.809A2.393,2.393,0,0,1-3.463.193,2.357,2.357,0,0,1-5.7-1.066a7.519,7.519,0,0,1-.633-3.492,6.459,6.459,0,0,1,.855-3.785A2.387,2.387,0,0,1-3.434-9.287Zm0,1.184A1.085,1.085,0,0,0-4.5-7.242a8.943,8.943,0,0,0-.281,2.666A8.1,8.1,0,0,0-4.43-1.664,1,1,0,0,0-3.463-1a1.113,1.113,0,0,0,1.09-.9A9.436,9.436,0,0,0-2.1-4.576a7.844,7.844,0,0,0-.352-2.877A1,1,0,0,0-3.434-8.1Z" transform="translate(387 850)" fill="#999"/><path d="M6.012-9.709a5.157,5.157,0,0,1,2.625.7A5.071,5.071,0,0,1,10.5-7.172a5.039,5.039,0,0,1,.709,2.607A5.05,5.05,0,0,1,10.5-1.951,5.071,5.071,0,0,1,8.637-.111a5.157,5.157,0,0,1-2.625.7,5.189,5.189,0,0,1-2.631-.7,5.117,5.117,0,0,1-1.869-1.84A5.05,5.05,0,0,1,.8-4.564a5.039,5.039,0,0,1,.709-2.607,5.117,5.117,0,0,1,1.869-1.84A5.189,5.189,0,0,1,6.012-9.709Zm0,1.248A3.757,3.757,0,0,0,3.1-7.184a3.761,3.761,0,0,0-1,2.619A3.731,3.731,0,0,0,3.381-1.658a3.8,3.8,0,0,0,2.631,1A3.739,3.739,0,0,0,8.918-1.939a3.781,3.781,0,0,0,1-2.625,3.732,3.732,0,0,0-1.277-2.9A3.781,3.781,0,0,0,6.012-8.461Z" transform="translate(281 785)" fill="#32b584"/><path d="M6.012-9.709a5.157,5.157,0,0,1,2.625.7A5.071,5.071,0,0,1,10.5-7.172a5.039,5.039,0,0,1,.709,2.607A5.05,5.05,0,0,1,10.5-1.951,5.071,5.071,0,0,1,8.637-.111a5.157,5.157,0,0,1-2.625.7,5.189,5.189,0,0,1-2.631-.7,5.117,5.117,0,0,1-1.869-1.84A5.05,5.05,0,0,1,.8-4.564a5.039,5.039,0,0,1,.709-2.607,5.117,5.117,0,0,1,1.869-1.84A5.189,5.189,0,0,1,6.012-9.709Zm0,1.248A3.757,3.757,0,0,0,3.1-7.184a3.761,3.761,0,0,0-1,2.619A3.731,3.731,0,0,0,3.381-1.658a3.8,3.8,0,0,0,2.631,1A3.739,3.739,0,0,0,8.918-1.939a3.781,3.781,0,0,0,1-2.625,3.732,3.732,0,0,0-1.277-2.9A3.781,3.781,0,0,0,6.012-8.461Z" transform="translate(250 785)" fill="#32b584"/><path d="M1.26-5.268a17.719,17.719,0,0,0,2.59.146H7.717q.568,0,1.465-.018,1.143-.018,1.295-.023h.059q.158,0,.158.17.018.275.018.568t-.018.563q0,.182-.17.182h-.047Q8.678-3.7,7.8-3.7H3.48l-1.764.146a.264.264,0,0,1-.275-.252A11.411,11.411,0,0,1,1.26-5.268Z" transform="translate(219 785)" fill="#32b584"/><path d="M6.012-9.709a5.157,5.157,0,0,1,2.625.7A5.071,5.071,0,0,1,10.5-7.172a5.039,5.039,0,0,1,.709,2.607A5.05,5.05,0,0,1,10.5-1.951,5.071,5.071,0,0,1,8.637-.111a5.157,5.157,0,0,1-2.625.7,5.189,5.189,0,0,1-2.631-.7,5.117,5.117,0,0,1-1.869-1.84A5.05,5.05,0,0,1,.8-4.564a5.039,5.039,0,0,1,.709-2.607,5.117,5.117,0,0,1,1.869-1.84A5.189,5.189,0,0,1,6.012-9.709Zm0,1.248A3.757,3.757,0,0,0,3.1-7.184a3.761,3.761,0,0,0-1,2.619A3.731,3.731,0,0,0,3.381-1.658a3.8,3.8,0,0,0,2.631,1A3.739,3.739,0,0,0,8.918-1.939a3.781,3.781,0,0,0,1-2.625,3.732,3.732,0,0,0-1.277-2.9A3.781,3.781,0,0,0,6.012-8.461Z" transform="translate(188 785)" fill="#32b584"/><path d="M6.012-9.709a5.157,5.157,0,0,1,2.625.7A5.071,5.071,0,0,1,10.5-7.172a5.039,5.039,0,0,1,.709,2.607A5.05,5.05,0,0,1,10.5-1.951,5.071,5.071,0,0,1,8.637-.111a5.157,5.157,0,0,1-2.625.7,5.189,5.189,0,0,1-2.631-.7,5.117,5.117,0,0,1-1.869-1.84A5.05,5.05,0,0,1,.8-4.564a5.039,5.039,0,0,1,.709-2.607,5.117,5.117,0,0,1,1.869-1.84A5.189,5.189,0,0,1,6.012-9.709Zm0,1.248A3.757,3.757,0,0,0,3.1-7.184a3.761,3.761,0,0,0-1,2.619A3.731,3.731,0,0,0,3.381-1.658a3.8,3.8,0,0,0,2.631,1A3.739,3.739,0,0,0,8.918-1.939a3.781,3.781,0,0,0,1-2.625,3.732,3.732,0,0,0-1.277-2.9A3.781,3.781,0,0,0,6.012-8.461Z" transform="translate(157 785)" fill="#32b584"/><path d="M1.26-5.268a17.719,17.719,0,0,0,2.59.146H7.717q.568,0,1.465-.018,1.143-.018,1.295-.023h.059q.158,0,.158.17.018.275.018.568t-.018.563q0,.182-.17.182h-.047Q8.678-3.7,7.8-3.7H3.48l-1.764.146a.264.264,0,0,1-.275-.252A11.411,11.411,0,0,1,1.26-5.268Z" transform="translate(358 820)" fill="#32b584"/><path d="M1.26-5.268a17.719,17.719,0,0,0,2.59.146H7.717q.568,0,1.465-.018,1.143-.018,1.295-.023h.059q.158,0,.158.17.018.275.018.568t-.018.563q0,.182-.17.182h-.047Q8.678-3.7,7.8-3.7H3.48l-1.764.146a.264.264,0,0,1-.275-.252A11.411,11.411,0,0,1,1.26-5.268Z" transform="translate(312 820)" fill="#32b584"/><path d="M6.012-9.709a5.157,5.157,0,0,1,2.625.7A5.071,5.071,0,0,1,10.5-7.172a5.039,5.039,0,0,1,.709,2.607A5.05,5.05,0,0,1,10.5-1.951,5.071,5.071,0,0,1,8.637-.111a5.157,5.157,0,0,1-2.625.7,5.189,5.189,0,0,1-2.631-.7,5.117,5.117,0,0,1-1.869-1.84A5.05,5.05,0,0,1,.8-4.564a5.039,5.039,0,0,1,.709-2.607,5.117,5.117,0,0,1,1.869-1.84A5.189,5.189,0,0,1,6.012-9.709Zm0,1.248A3.757,3.757,0,0,0,3.1-7.184a3.761,3.761,0,0,0-1,2.619A3.731,3.731,0,0,0,3.381-1.658a3.8,3.8,0,0,0,2.631,1A3.739,3.739,0,0,0,8.918-1.939a3.781,3.781,0,0,0,1-2.625,3.732,3.732,0,0,0-1.277-2.9A3.781,3.781,0,0,0,6.012-8.461Z" transform="translate(281 820)" fill="#32b584"/><path d="M-293.865-6.85v1.295h-3.855V.023H-299.3V-5.555h-3.826V-6.85Zm0-2.285V-7.84h-9.264V-9.135Zm6.889-.059v8.051h1.705V.023H-290.2V-1.143h1.8V-7.67a6.61,6.61,0,0,1-1.693.814l-.24-1.26a6.784,6.784,0,0,0,2.133-1.078Zm4.346,1.881a2.513,2.513,0,0,1,1.09-1.535,3.09,3.09,0,0,1,1.682-.439,2.891,2.891,0,0,1,2.092.738,2.075,2.075,0,0,1,.656,1.564,2.028,2.028,0,0,1-.521,1.436,2.142,2.142,0,0,1-1.23.627v.082a2.419,2.419,0,0,1,1.494.879,2.3,2.3,0,0,1,.439,1.43,2.544,2.544,0,0,1-.914,2.063,3.033,3.033,0,0,1-2.016.662,2.7,2.7,0,0,1-2.912-2.027l1.471-.434a1.751,1.751,0,0,0,.545,1.031,1.372,1.372,0,0,0,.885.264,1.3,1.3,0,0,0,1.072-.463,1.664,1.664,0,0,0,.334-1.084q0-1.658-1.775-1.658h-.7V-5.4h.633q1.682,0,1.682-1.441a1.245,1.245,0,0,0-.387-1,1.278,1.278,0,0,0-.873-.287,1.161,1.161,0,0,0-.873.352,1.59,1.59,0,0,0-.4.908Zm13.37-1.822v1.2h-3.621l-.076,1.846a8.288,8.288,0,0,1-.07.867,1.772,1.772,0,0,1,1.57-.791,2.352,2.352,0,0,1,1.951.926,3.3,3.3,0,0,1,.633,2.074,3.247,3.247,0,0,1-.92,2.438,2.78,2.78,0,0,1-2.01.768,3.025,3.025,0,0,1-1.9-.562,2.456,2.456,0,0,1-.879-1.43l1.465-.445q.24,1.271,1.307,1.271a1.192,1.192,0,0,0,1.072-.6,2.614,2.614,0,0,0,.334-1.412,2.223,2.223,0,0,0-.4-1.436,1.148,1.148,0,0,0-.937-.422,1.275,1.275,0,0,0-1.295,1.031L-274.287-4l.182-5.139Zm6.532,4.934v1.178h-3.5V-4.2Zm5.477-5.086a2.376,2.376,0,0,1,2.227,1.236,7.259,7.259,0,0,1,.65,3.469,6.579,6.579,0,0,1-.85,3.809,2.393,2.393,0,0,1-2.057.967,2.357,2.357,0,0,1-2.232-1.26,7.519,7.519,0,0,1-.633-3.492,6.459,6.459,0,0,1,.855-3.785A2.387,2.387,0,0,1-257.25-9.287Zm0,1.184a1.085,1.085,0,0,0-1.066.861,8.943,8.943,0,0,0-.281,2.666,8.1,8.1,0,0,0,.352,2.912,1,1,0,0,0,.967.668,1.113,1.113,0,0,0,1.09-.9,9.436,9.436,0,0,0,.27-2.684,7.844,7.844,0,0,0-.352-2.877A1,1,0,0,0-257.25-8.1Zm8.079-1.184a2.376,2.376,0,0,1,2.227,1.236,7.259,7.259,0,0,1,.65,3.469,6.579,6.579,0,0,1-.85,3.809A2.393,2.393,0,0,1-249.2.193a2.357,2.357,0,0,1-2.232-1.26,7.519,7.519,0,0,1-.633-3.492,6.459,6.459,0,0,1,.855-3.785A2.387,2.387,0,0,1-249.171-9.287Zm0,1.184a1.085,1.085,0,0,0-1.066.861,8.943,8.943,0,0,0-.281,2.666,8.1,8.1,0,0,0,.352,2.912A1,1,0,0,0-249.2-1a1.113,1.113,0,0,0,1.09-.9,9.436,9.436,0,0,0,.27-2.684,7.844,7.844,0,0,0-.352-2.877A1,1,0,0,0-249.171-8.1Zm5.22.791a2.513,2.513,0,0,1,1.09-1.535,3.09,3.09,0,0,1,1.682-.439,2.891,2.891,0,0,1,2.092.738,2.075,2.075,0,0,1,.656,1.564,2.028,2.028,0,0,1-.521,1.436,2.142,2.142,0,0,1-1.23.627v.082a2.419,2.419,0,0,1,1.494.879,2.3,2.3,0,0,1,.439,1.43,2.544,2.544,0,0,1-.914,2.063,3.033,3.033,0,0,1-2.016.662,2.7,2.7,0,0,1-2.912-2.027l1.471-.434a1.751,1.751,0,0,0,.545,1.031,1.372,1.372,0,0,0,.885.264,1.3,1.3,0,0,0,1.072-.463,1.664,1.664,0,0,0,.334-1.084q0-1.658-1.775-1.658h-.7V-5.4h.633q1.682,0,1.682-1.441a1.245,1.245,0,0,0-.387-1,1.278,1.278,0,0,0-.873-.287,1.161,1.161,0,0,0-.873.352,1.59,1.59,0,0,0-.4.908Zm8.079,0a2.513,2.513,0,0,1,1.09-1.535,3.09,3.09,0,0,1,1.682-.439,2.891,2.891,0,0,1,2.092.738,2.075,2.075,0,0,1,.656,1.564,2.028,2.028,0,0,1-.521,1.436,2.142,2.142,0,0,1-1.23.627v.082a2.419,2.419,0,0,1,1.494.879,2.3,2.3,0,0,1,.439,1.43,2.544,2.544,0,0,1-.914,2.063A3.033,3.033,0,0,1-233.1.193a2.7,2.7,0,0,1-2.912-2.027l1.471-.434A1.751,1.751,0,0,0-234-1.236a1.372,1.372,0,0,0,.885.264,1.3,1.3,0,0,0,1.072-.463,1.664,1.664,0,0,0,.334-1.084q0-1.658-1.775-1.658h-.7V-5.4h.633q1.682,0,1.682-1.441a1.245,1.245,0,0,0-.387-1,1.278,1.278,0,0,0-.873-.287,1.161,1.161,0,0,0-.873.352,1.59,1.59,0,0,0-.4.908Zm14.306-.428-1.477.023q-.094,0-.111-.023a.2.2,0,0,1-.018-.105v-.867q0-.094.023-.111a.2.2,0,0,1,.105-.018l1.477.023h3.064a7.184,7.184,0,0,0-.1-1.248q.738.018,1.295.082.193.023.193.123a.755.755,0,0,1-.07.264,2.342,2.342,0,0,0-.076.779h3.287l1.477-.023q.123,0,.123.129v.867q0,.129-.123.129l-1.477-.023h-3.287v.732h1.863l1.664-.023q.105,0,.129.029a.236.236,0,0,1,.018.117l-.023,1.125v1.98l.023,1.125q0,.094-.023.114a.223.223,0,0,1-.123.021l-1.664-.023h-1a10.706,10.706,0,0,0,4.4,2.133,3.286,3.286,0,0,0-.516.832q-.129.311-.229.311a1.365,1.365,0,0,1-.275-.082,10.288,10.288,0,0,1-4.283-2.689q.012.932.053,2,.006.158.018.352.018.439.018.486a.185.185,0,0,1-.023.117.219.219,0,0,1-.111.018h-1.078q-.1,0-.117-.029A.183.183,0,0,1-218.555.8q0-.047.018-.48.059-1.277.07-2.314A9.645,9.645,0,0,1-222.439.65a1.255,1.255,0,0,1-.287.082q-.111,0-.24-.287a2.963,2.963,0,0,0-.5-.756,9.694,9.694,0,0,0,4.113-2.232h-.779l-1.664.023q-.1,0-.117-.023a.219.219,0,0,1-.018-.111l.023-1.125V-5.76l-.023-1.125a.214.214,0,0,1,.023-.129.219.219,0,0,1,.111-.018l1.664.023h1.635V-7.74Zm6.732,4.271v-.85h-2.426v.85Zm0-2.6h-2.426v.838h2.426Zm-5.865,2.6h2.2v-.85h-2.2Zm0-1.764h2.2V-6.07h-2.2Zm14.208-1.512h3.826l1.652-.023q.1,0,.117.023a.219.219,0,0,1,.018.111l-.023.967v1.313l.023.967a.191.191,0,0,1-.021.114.191.191,0,0,1-.114.021l-1.652-.023h-1.213v1.213l.035,1.512a1.839,1.839,0,0,1-.094.668A.962.962,0,0,1-204.23.5a1.193,1.193,0,0,1-.592.234,8.607,8.607,0,0,1-1.131.053l-.158.006a.25.25,0,0,1-.217-.076,1.02,1.02,0,0,1-.094-.287,2.224,2.224,0,0,0-.369-.879,9.956,9.956,0,0,0,1.1.076.648.648,0,0,0,.445-.117A.45.45,0,0,0-205.15-.8V-3.275h-1.342l-1.641.023a.214.214,0,0,1-.129-.023.219.219,0,0,1-.018-.111l.023-.967V-5.666l-.023-.967q0-.1.029-.117a.236.236,0,0,1,.117-.018Zm4.342,2.391v-1.3h-4.869v1.3Zm-5.959-3.229-1.529.012a.2.2,0,0,1-.123-.023.153.153,0,0,1-.018-.094v-.943q0-.094.023-.111a.258.258,0,0,1,.117-.018l1.529.023h2.865v-.205a5.168,5.168,0,0,0-.082-1.1q.557,0,1.295.059.182.018.182.123a.929.929,0,0,1-.088.252,3.482,3.482,0,0,0-.047.68v.193h3.023l1.523-.023a.185.185,0,0,1,.117.023.2.2,0,0,1,.018.105v.943q0,.117-.135.117l-1.523-.012Zm9.059,6.873a2.747,2.747,0,0,0-.627.768q-.17.275-.252.275A.635.635,0,0,1-200.2.188a9.059,9.059,0,0,1-2.461-2.432.171.171,0,0,1-.035-.088q0-.041.123-.129l.691-.4a.359.359,0,0,1,.135-.059q.047,0,.105.094A7.076,7.076,0,0,0-199.05-.709Zm-10.957.135A7.458,7.458,0,0,0-207.945-2.3a2.113,2.113,0,0,0,.352-.674,9.607,9.607,0,0,1,1.031.516.247.247,0,0,1,.141.205.238.238,0,0,1-.141.205,1.064,1.064,0,0,0-.328.322A8.136,8.136,0,0,1-208.841.152a.886.886,0,0,1-.293.158q-.1,0-.252-.252A1.926,1.926,0,0,0-210.007-.574Zm18.473-8.906a4.449,4.449,0,0,1,.961.592q.158.117.158.205t-.135.176a1.384,1.384,0,0,0-.393.563,12.358,12.358,0,0,1-.99,1.611l1.072-.012a.234.234,0,0,1,.123.018.168.168,0,0,1,.018.1v.809q0,.094-.023.111a.236.236,0,0,1-.117.018l-1.529-.023h-.369a12.388,12.388,0,0,1-.961.961h1.166l1.078-.023q.105,0,.129.029a.236.236,0,0,1,.018.117l-.023,1.641v1.213l.023,2.086q0,.082-.029.1a.236.236,0,0,1-.117.018h-.879q-.129,0-.129-.117V.287h-1.992v.5q0,.1-.023.117a.2.2,0,0,1-.111.018h-.9q-.094,0-.111-.029a.183.183,0,0,1-.018-.105l.023-2.086V-2.889q-.187.135-.568.369a.5.5,0,0,1-.223.1q-.129,0-.229-.264a1.858,1.858,0,0,0-.41-.627,12.24,12.24,0,0,0,2.818-2h-.914l-1.535.023a.2.2,0,0,1-.123-.023.2.2,0,0,1-.018-.105v-.809q0-.088.023-.105a.343.343,0,0,1,.117-.012l1.535.012h.457V-7.523h-.287l-1.2.023q-.135,0-.135-.117v-.791q0-.1.023-.117a.219.219,0,0,1,.111-.018l1.2.023h.287v-.047a9.449,9.449,0,0,0-.088-1.5q.346.012,1.2.082.193.023.193.135a.706.706,0,0,1-.076.252,4.231,4.231,0,0,0-.059,1.008v.07l1.02-.023q.094,0,.111.023a.219.219,0,0,1,.018.111v.768q.258-.451.445-.832A4.892,4.892,0,0,0-191.534-9.48Zm-2.941,8.771h1.992v-.908h-1.992Zm1.992-2.672h-1.992v.838h1.992Zm-1.031-4.143v1.189h.24a8.479,8.479,0,0,0,.814-1.166h-.035Zm4.67,5.76h.123q1.547,0,1.547-.984a2.187,2.187,0,0,0-.346-1.184,7.316,7.316,0,0,0-1.207-1.336,23.685,23.685,0,0,0,1.236-3.146h-1.629v6.721L-189.1.814q0,.094-.023.111a.219.219,0,0,1-.111.018h-.961a.2.2,0,0,1-.123-.023.2.2,0,0,1-.018-.105l.023-2.5V-6.867l-.023-2.525q0-.1.023-.117a.236.236,0,0,1,.117-.018l1.072.023h1.857a.9.9,0,0,0,.316-.035.578.578,0,0,1,.176-.035q.146,0,.51.363a.92.92,0,0,1,.287.486.281.281,0,0,1-.123.217,1.236,1.236,0,0,0-.24.445q-.545,1.441-1.1,2.6A4.854,4.854,0,0,1-186.2-3.926a3.144,3.144,0,0,1,.234,1.271q0,1.846-2.115,2.045-.158.012-.211.012a.171.171,0,0,1-.17-.082,1.292,1.292,0,0,1-.064-.293A1.406,1.406,0,0,0-188.844-1.764Zm10.552-5.895-1.605.023a.185.185,0,0,1-.117-.023.2.2,0,0,1-.018-.105V-8.771q0-.1.029-.117a.183.183,0,0,1,.105-.018l1.605.023h3.527l1.623-.023q.094,0,.111.023a.219.219,0,0,1,.018.111v1.008q0,.094-.023.111a.2.2,0,0,1-.105.018l-1.623-.023h-1.283v6.41h1.623l1.652-.023q.123,0,.123.129v1a.207.207,0,0,1-.021.117q-.021.023-.1.023l-1.652-.023h-4.395L-180.472,0q-.1,0-.117-.029a.219.219,0,0,1-.018-.111v-1a.176.176,0,0,1,.021-.108.191.191,0,0,1,.114-.021l1.652.023h1.441v-6.41ZM-183.531.047a7.826,7.826,0,0,0,.621-.861,26.012,26.012,0,0,0,1.33-2.824,5.011,5.011,0,0,0,.65.615q.252.2.252.311a1.015,1.015,0,0,1-.07.275A25.976,25.976,0,0,1-182.031.193a1.736,1.736,0,0,0-.217.451q-.023.158-.146.158a.4.4,0,0,1-.229-.082A6.945,6.945,0,0,1-183.531.047Zm1.26-9.873a13.864,13.864,0,0,1,1.881,1.283q.07.053.07.094a.4.4,0,0,1-.07.146l-.551.756q-.07.088-.111.088a.192.192,0,0,1-.094-.053,10.126,10.126,0,0,0-1.922-1.383q-.082-.047-.082-.082a.3.3,0,0,1,.082-.141l.557-.65q.076-.1.129-.1A.279.279,0,0,1-182.271-9.826Zm-.457,3.129a9.082,9.082,0,0,1,1.887,1.178q.07.07.07.1a.351.351,0,0,1-.076.141l-.539.768q-.053.088-.094.088t-.111-.07a8.738,8.738,0,0,0-1.869-1.266q-.082-.047-.082-.088a.3.3,0,0,1,.082-.141l.492-.645q.076-.094.129-.094A.357.357,0,0,1-182.728-6.7Zm13.962-1.043-1.477.023q-.094,0-.111-.023a.2.2,0,0,1-.018-.105v-.867q0-.094.023-.111a.2.2,0,0,1,.105-.018l1.477.023h3.064a7.184,7.184,0,0,0-.1-1.248q.738.018,1.295.082.193.023.193.123a.755.755,0,0,1-.07.264,2.342,2.342,0,0,0-.076.779h3.287l1.477-.023q.123,0,.123.129v.867q0,.129-.123.129l-1.477-.023h-3.287v.732h1.863l1.664-.023q.105,0,.129.029a.236.236,0,0,1,.018.117l-.023,1.125v1.98l.023,1.125q0,.094-.023.114a.223.223,0,0,1-.123.021l-1.664-.023h-1a10.706,10.706,0,0,0,4.4,2.133,3.286,3.286,0,0,0-.516.832q-.129.311-.229.311a1.365,1.365,0,0,1-.275-.082,10.288,10.288,0,0,1-4.283-2.689q.012.932.053,2,.006.158.018.352.018.439.018.486a.185.185,0,0,1-.023.117.219.219,0,0,1-.111.018h-1.078q-.1,0-.117-.029A.183.183,0,0,1-165.755.8q0-.047.018-.48.059-1.277.07-2.314A9.645,9.645,0,0,1-169.639.65a1.255,1.255,0,0,1-.287.082q-.111,0-.24-.287a2.963,2.963,0,0,0-.5-.756,9.694,9.694,0,0,0,4.113-2.232h-.779L-169-2.52q-.1,0-.117-.023a.219.219,0,0,1-.018-.111l.023-1.125V-5.76l-.023-1.125a.214.214,0,0,1,.023-.129A.219.219,0,0,1-169-7.031l1.664.023h1.635V-7.74Zm6.732,4.271v-.85h-2.426v.85Zm0-2.6h-2.426v.838h2.426Zm-5.865,2.6h2.2v-.85h-2.2Zm0-1.764h2.2V-6.07h-2.2Zm12.6-3.117V-.879h6.984l1.646-.023q.094,0,.111.023a.219.219,0,0,1,.018.111V.188a.191.191,0,0,1-.021.114.176.176,0,0,1-.108.021L-148.313.3H-155.3V.814a.185.185,0,0,1-.023.117.277.277,0,0,1-.123.018h-1.02a.176.176,0,0,1-.108-.021.191.191,0,0,1-.021-.114l.023-2.52v-5.18l-.023-2.52a.214.214,0,0,1,.023-.129.219.219,0,0,1,.111-.018l1.605.023h6.457l1.57-.023q.105,0,.123.029a.185.185,0,0,1,.023.117v.949q0,.094-.029.111a.236.236,0,0,1-.117.018l-1.57-.023Zm2.063,1.2q1.107.7,2.391,1.682a10.319,10.319,0,0,0,.9-1.488,3.555,3.555,0,0,0,.334-.973,7.175,7.175,0,0,1,1.148.457q.182.088.182.205,0,.094-.146.217a2.848,2.848,0,0,0-.334.551,13.5,13.5,0,0,1-1.125,1.811q.961.785,2.15,1.875.082.064.082.117t-.1.158l-.656.721a.19.19,0,0,1-.135.082.124.124,0,0,1-.105-.059q-.9-.932-2.039-1.934a12.113,12.113,0,0,1-2.965,2.244,1.154,1.154,0,0,1-.287.123q-.088,0-.264-.264a2.452,2.452,0,0,0-.65-.65,11.467,11.467,0,0,0,3.229-2.256q-1.154-.926-2.391-1.775-.082-.053-.082-.1t.094-.141l.545-.551q.088-.094.129-.094A.214.214,0,0,1-153.234-7.154ZM-139.3-3.17l-1.652.023q-.1,0-.117-.029a.219.219,0,0,1-.018-.111v-.82a.2.2,0,0,1,.023-.123.219.219,0,0,1,.111-.018l1.652.023h1.383A8.3,8.3,0,0,0-138-5.414q.6.018,1.189.088.182.018.182.129a.631.631,0,0,1-.082.24,1.652,1.652,0,0,0-.053.551v.182h1.717l1.67-.023q.094,0,.111.029a.219.219,0,0,1,.018.111v.82a.207.207,0,0,1-.021.117q-.021.023-.108.023l-1.67-.023h-1.26a7.791,7.791,0,0,0,3.311,2.232,3.71,3.71,0,0,0-.48.832q-.111.3-.2.3a1.382,1.382,0,0,1-.275-.117,7.663,7.663,0,0,1-2.848-2.49l.059,3.205q0,.123-.129.123h-.949q-.129,0-.129-.123,0-.088.029-1.3.023-1.078.029-1.857A7.614,7.614,0,0,1-140.6.135a.756.756,0,0,1-.275.117q-.088,0-.24-.275a3.246,3.246,0,0,0-.539-.721,7.774,7.774,0,0,0,3.205-2.426Zm4.084-6.346,1.658-.023q.094,0,.111.023a.219.219,0,0,1,.018.111l-.023.463v.363l.023,1.078q0,.117-.135.117h-.9a.214.214,0,0,1-.129-.023.153.153,0,0,1-.018-.094v-.961h-5.039V-7.33a.2.2,0,0,1-.023.123.2.2,0,0,1-.105.018h-.9q-.1,0-.117-.023a.236.236,0,0,1-.018-.117l.023-1.143v-.334l-.023-.6q0-.1.023-.117a.2.2,0,0,1,.105-.018l1.646.023Zm-1.729,1.477q.727.018,1.137.059.193.018.193.135a.54.54,0,0,1-.07.211,1.592,1.592,0,0,0-.053.545v.469q0,.287.076.346a1.394,1.394,0,0,0,.586.07,1.093,1.093,0,0,0,.627-.117,1.214,1.214,0,0,0,.152-.709,3.181,3.181,0,0,0,.744.311,1.217,1.217,0,0,1,.24.094.153.153,0,0,1,.053.129q0,.041-.018.188a1.376,1.376,0,0,1-.416.885,2.7,2.7,0,0,1-1.488.264,3.374,3.374,0,0,1-1.336-.158.766.766,0,0,1-.357-.75v-.674A8.922,8.922,0,0,0-136.947-8.039Zm-7.072,8a5.356,5.356,0,0,0,.6-.914,19.5,19.5,0,0,0,1.137-2.7,3.935,3.935,0,0,0,.674.615q.252.2.252.3a1.015,1.015,0,0,1-.07.275A19.86,19.86,0,0,1-142.542.082a2.006,2.006,0,0,0-.182.457q-.035.158-.164.158a.451.451,0,0,1-.217-.07A8.1,8.1,0,0,1-144.019-.035Zm5.309-8a6.9,6.9,0,0,1,1.09.275q.182.053.182.158a.257.257,0,0,1-.094.164,3.532,3.532,0,0,0-.182.457,3.354,3.354,0,0,1-2.174,2.139,2.538,2.538,0,0,1-.275.082q-.088,0-.252-.275a2.455,2.455,0,0,0-.58-.639,2.707,2.707,0,0,0,2.139-1.617A2.729,2.729,0,0,0-138.71-8.039Zm-4.541,1.225a10.675,10.675,0,0,1,1.67,1.184.19.19,0,0,1,.053.111.3.3,0,0,1-.053.129l-.551.721q-.088.123-.135.123a.288.288,0,0,1-.105-.059,8.422,8.422,0,0,0-1.635-1.289q-.082-.047-.082-.094a.262.262,0,0,1,.07-.129l.527-.639q.076-.094.135-.094A.236.236,0,0,1-143.251-6.814Zm.469-3.012a10.469,10.469,0,0,1,1.611,1.271.141.141,0,0,1,.064.1.33.33,0,0,1-.076.152l-.527.709q-.094.105-.123.105a.239.239,0,0,1-.105-.059,9.377,9.377,0,0,0-1.623-1.395q-.082-.053-.082-.082a.313.313,0,0,1,.082-.135l.539-.609q.082-.094.141-.094A.273.273,0,0,1-142.782-9.826Zm11.811,9.609a6.5,6.5,0,0,0,1.295-2.953,19.722,19.722,0,0,0,.229-3.516v-1.2a11.829,11.829,0,0,0-.123-1.822q.9.047,1.336.111.217.018.217.152a.913.913,0,0,1-.088.275,7.092,7.092,0,0,0-.059,1.3V-6.8a22.58,22.58,0,0,1-.275,4,9.239,9.239,0,0,1-1.295,3.3q-.146.217-.217.217-.053,0-.24-.205A3.237,3.237,0,0,0-130.971-.217Zm8.777-9.539a11.215,11.215,0,0,1,1.342.105q.217.023.217.158a1.567,1.567,0,0,1-.082.264,4.521,4.521,0,0,0-.1,1.271v6.352l.023,2.215q0,.1-.023.117a.2.2,0,0,1-.105.018h-1.072q-.094,0-.111-.023a.219.219,0,0,1-.018-.111l.023-2.2V-7.922A16.163,16.163,0,0,0-122.194-9.756Zm-3.744.574q.8.023,1.342.088.217.018.217.152a1.22,1.22,0,0,1-.082.293,4.607,4.607,0,0,0-.088,1.248v4.822l.023,1.992q0,.1-.023.12a.223.223,0,0,1-.123.021h-1.055q-.094,0-.111-.023a.236.236,0,0,1-.018-.117l.023-1.992V-7.365A13.388,13.388,0,0,0-125.938-9.182Zm12.1-.012v8.051h1.705V.023h-4.934V-1.143h1.8V-7.67a6.61,6.61,0,0,1-1.693.814l-.24-1.26a6.784,6.784,0,0,0,2.133-1.078Zm8.091,4.992v1.178h-3.5V-4.2Zm4.253,2.367q.24.873.961.873A1.318,1.318,0,0,0-99.287-1.8a6.322,6.322,0,0,0,.416-2.426,1.964,1.964,0,0,1-1.869,1.09,2.181,2.181,0,0,1-1.828-.9,3.3,3.3,0,0,1-.609-2.051,3.353,3.353,0,0,1,.85-2.449,2.551,2.551,0,0,1,1.91-.75A2.509,2.509,0,0,1-98.15-8.1a5.958,5.958,0,0,1,.709,3.2A6.913,6.913,0,0,1-98.373-.82,2.575,2.575,0,0,1-100.564.193a2.3,2.3,0,0,1-2.408-1.477Zm2.555-3.6q-.018-2.7-1.418-2.7-1.295,0-1.295,2.016a2.243,2.243,0,0,0,.387,1.412,1.061,1.061,0,0,0,.873.422A1.593,1.593,0,0,0-98.941-5.437ZM-91.308-4.2v1.178h-3.5V-4.2Zm6.35-4.992v8.051h1.705V.023h-4.934V-1.143h1.8V-7.67a6.61,6.61,0,0,1-1.693.814l-.24-1.26a6.784,6.784,0,0,0,2.133-1.078Zm7.206-.094a2.376,2.376,0,0,1,2.227,1.236,7.259,7.259,0,0,1,.65,3.469,6.579,6.579,0,0,1-.85,3.809,2.393,2.393,0,0,1-2.057.967,2.357,2.357,0,0,1-2.232-1.26,7.519,7.519,0,0,1-.633-3.492,6.459,6.459,0,0,1,.855-3.785A2.387,2.387,0,0,1-77.752-9.287Zm0,1.184a1.085,1.085,0,0,0-1.066.861A8.943,8.943,0,0,0-79.1-4.576a8.1,8.1,0,0,0,.352,2.912A1,1,0,0,0-77.781-1a1.113,1.113,0,0,0,1.09-.9,9.436,9.436,0,0,0,.27-2.684,7.844,7.844,0,0,0-.352-2.877A1,1,0,0,0-77.752-8.1ZM-64.963-.838a10.61,10.61,0,0,0,1.271.07.611.611,0,0,0,.422-.105.492.492,0,0,0,.105-.363V-8.016a12.465,12.465,0,0,0-.094-1.717q.744.023,1.389.094.205.023.205.135a.816.816,0,0,1-.088.264,4.532,4.532,0,0,0-.082,1.2v4.717l.047,2.385A1.4,1.4,0,0,1-62.221.275,1.736,1.736,0,0,1-62.93.51a9.973,9.973,0,0,1-1.23.064.631.631,0,0,1-.346-.053.814.814,0,0,1-.1-.316A3.254,3.254,0,0,0-64.963-.838Zm-3.088-1.5a9.865,9.865,0,0,0,1.969-3.744,5.52,5.52,0,0,0,.193-1.049,9.747,9.747,0,0,1,1.242.422q.205.094.205.193a.239.239,0,0,1-.094.193,1.149,1.149,0,0,0-.229.48,12.835,12.835,0,0,1-1.893,3.979q-.158.229-.229.229a.694.694,0,0,1-.264-.17A3.3,3.3,0,0,0-68.051-2.338Zm11.074-.146a4.452,4.452,0,0,0-.9.633q-.2.182-.264.182t-.217-.229a17.935,17.935,0,0,1-1.26-2.373,16.488,16.488,0,0,1-.832-2.3.494.494,0,0,1-.012-.088q0-.07.182-.129l.838-.311a.594.594,0,0,1,.141-.041q.047,0,.076.111A13.316,13.316,0,0,0-56.977-2.484Zm4-5.684-1.5.023q-.1,0-.117-.023a.2.2,0,0,1-.018-.105v-.979q0-.094.023-.111a.219.219,0,0,1,.111-.018l1.5.023H-45.6l1.5-.023a.185.185,0,0,1,.117.023.2.2,0,0,1,.018.105v.979q0,.094-.029.111a.183.183,0,0,1-.105.018l-1.5-.023h-2.086v1.436h1.26l1.641-.023a.185.185,0,0,1,.117.023.219.219,0,0,1,.018.111l-.023,2.145v2.051l.023,3.07a.185.185,0,0,1-.023.117.219.219,0,0,1-.111.018H-45.8q-.094,0-.111-.029a.183.183,0,0,1-.018-.105V.105h-6.721V.68A.185.185,0,0,1-52.677.8a.219.219,0,0,1-.111.018h-1.02q-.094,0-.111-.023A.219.219,0,0,1-53.937.68l.023-3.082V-4.213l-.023-2.408q0-.1.023-.117a.2.2,0,0,1,.105-.018l1.646.023h1.031V-8.168Zm.322,2.566v4.553h6.721V-5.6h-1.752V-3.92a.323.323,0,0,0,.035.188.4.4,0,0,0,.264.059.472.472,0,0,0,.275-.059,4.236,4.236,0,0,0,.082-1.248,5.118,5.118,0,0,0,.592.264.547.547,0,0,1,.24.135.529.529,0,0,1,.053.281q0,.076-.006.205a1.871,1.871,0,0,1-.375,1.307,1.388,1.388,0,0,1-.873.229,2.635,2.635,0,0,1-1.084-.158.6.6,0,0,1-.3-.311,1.7,1.7,0,0,1-.082-.609V-5.6h-1.125a6.843,6.843,0,0,1-.434,2.039A4.089,4.089,0,0,1-51.335-2.2q-.182.182-.264.182t-.287-.193a2.65,2.65,0,0,0-.709-.475,3.437,3.437,0,0,0,1.049-1.342,5.181,5.181,0,0,0,.357-1.57Zm2.713-1.131h1.078V-8.168h-1.078Zm11.888,1.271a24.107,24.107,0,0,0,2.93-1.16,4.384,4.384,0,0,0,1.283-.867,6.468,6.468,0,0,1,1,1.078.358.358,0,0,1,.094.217q0,.164-.205.217a7.664,7.664,0,0,0-1,.4A32.705,32.705,0,0,1-38.071-4.09V-2.5a1.461,1.461,0,0,0,.094.627.489.489,0,0,0,.311.223,6.127,6.127,0,0,0,1.506.135,22.435,22.435,0,0,0,3.387-.275.541.541,0,0,1,.076-.006q.123,0,.141.176.07.668.07,1.037,0,.2-.252.217A28.889,28.889,0,0,1-36.3-.146a6.139,6.139,0,0,1-2.285-.322q-.85-.357-.85-1.8V-6.7a15.338,15.338,0,0,0-.117-2.2,11.119,11.119,0,0,1,1.512.24q.193.053.193.193a.538.538,0,0,1-.082.252,2.9,2.9,0,0,0-.123,1.078Zm4.383-3.023.633-.445a.11.11,0,0,1,.07-.029.19.19,0,0,1,.111.053,5.026,5.026,0,0,1,1.137,1.289.145.145,0,0,1,.035.082.13.13,0,0,1-.07.105l-.5.375a.175.175,0,0,1-.094.035.143.143,0,0,1-.111-.076A6.188,6.188,0,0,0-33.67-8.484Zm1.1-.791.6-.434a.157.157,0,0,1,.076-.029.188.188,0,0,1,.105.053,4.644,4.644,0,0,1,1.143,1.236.2.2,0,0,1,.035.1.146.146,0,0,1-.076.117l-.475.375a.182.182,0,0,1-.1.035.13.13,0,0,1-.105-.076A5.677,5.677,0,0,0-32.569-9.275Zm10.9,6.744A12.528,12.528,0,0,0-19.961-3.65a11.588,11.588,0,0,0,2.1-2.039,3.4,3.4,0,0,0,.375,1.213.911.911,0,0,1,.07.205.477.477,0,0,1-.182.3A15.361,15.361,0,0,1-19.375-2.4,21.274,21.274,0,0,1-21.507-.955q-.17.111-.346.252a.389.389,0,0,1-.246.094A.545.545,0,0,1-22.351-.7a3.376,3.376,0,0,1-.721-.732.536.536,0,0,1-.105-.252.405.405,0,0,1,.047-.182,3.11,3.11,0,0,0,.07-.914V-6.539a11.55,11.55,0,0,0-.123-2.092,12.686,12.686,0,0,1,1.506.252q.217.053.217.205a.763.763,0,0,1-.094.3,4.335,4.335,0,0,0-.111,1.33Zm-4.189-5.338a9.441,9.441,0,0,1,1.523.264q.193.053.193.217a.421.421,0,0,1-.035.152,1.828,1.828,0,0,0-.146.814,9.037,9.037,0,0,1-.65,3.527A6.1,6.1,0,0,1-26.675-.639a.562.562,0,0,1-.311.158.428.428,0,0,1-.229-.094,4.278,4.278,0,0,0-1.02-.5,6.172,6.172,0,0,0,1.992-2.391,5.925,5.925,0,0,0,.387-1.389,14.407,14.407,0,0,0,.117-2A3.967,3.967,0,0,0-25.855-7.869Zm10.8,1.113a2.806,2.806,0,0,1,1.025-1.963,2.83,2.83,0,0,1,1.8-.568,2.819,2.819,0,0,1,2.074.727A2.329,2.329,0,0,1-9.5-6.82a2.827,2.827,0,0,1-.457,1.541,8.672,8.672,0,0,1-1.395,1.559,9.991,9.991,0,0,0-2.232,2.543h4.119v1.2h-5.678V-1.043a12.205,12.205,0,0,1,2.619-3.4A7.093,7.093,0,0,0-11.3-5.859a1.952,1.952,0,0,0,.24-.973,1.264,1.264,0,0,0-.369-.979,1.176,1.176,0,0,0-.832-.293q-1.189,0-1.3,1.658ZM-.369-9.287V-8h-4.5V-5.5h3.4v1.283h-3.4V.023H-6.5V-9.287Z" transform="translate(387 880)" fill="#333"/><path d="M6.012-9.709a5.157,5.157,0,0,1,2.625.7A5.071,5.071,0,0,1,10.5-7.172a5.039,5.039,0,0,1,.709,2.607A5.05,5.05,0,0,1,10.5-1.951,5.071,5.071,0,0,1,8.637-.111a5.157,5.157,0,0,1-2.625.7,5.189,5.189,0,0,1-2.631-.7,5.117,5.117,0,0,1-1.869-1.84A5.05,5.05,0,0,1,.8-4.564a5.039,5.039,0,0,1,.709-2.607,5.117,5.117,0,0,1,1.869-1.84A5.189,5.189,0,0,1,6.012-9.709Zm0,1.248A3.757,3.757,0,0,0,3.1-7.184a3.761,3.761,0,0,0-1,2.619A3.731,3.731,0,0,0,3.381-1.658a3.8,3.8,0,0,0,2.631,1A3.739,3.739,0,0,0,8.918-1.939a3.781,3.781,0,0,0,1-2.625,3.732,3.732,0,0,0-1.277-2.9A3.781,3.781,0,0,0,6.012-8.461Z" transform="translate(250 820)" fill="#32b584"/><path d="M1.26-5.268a17.719,17.719,0,0,0,2.59.146H7.717q.568,0,1.465-.018,1.143-.018,1.295-.023h.059q.158,0,.158.17.018.275.018.568t-.018.563q0,.182-.17.182h-.047Q8.678-3.7,7.8-3.7H3.48l-1.764.146a.264.264,0,0,1-.275-.252A11.411,11.411,0,0,1,1.26-5.268Z" transform="translate(219 820)" fill="#32b584"/><path d="M6.012-9.709a5.157,5.157,0,0,1,2.625.7A5.071,5.071,0,0,1,10.5-7.172a5.039,5.039,0,0,1,.709,2.607A5.05,5.05,0,0,1,10.5-1.951,5.071,5.071,0,0,1,8.637-.111a5.157,5.157,0,0,1-2.625.7,5.189,5.189,0,0,1-2.631-.7,5.117,5.117,0,0,1-1.869-1.84A5.05,5.05,0,0,1,.8-4.564a5.039,5.039,0,0,1,.709-2.607,5.117,5.117,0,0,1,1.869-1.84A5.189,5.189,0,0,1,6.012-9.709Zm0,1.248A3.757,3.757,0,0,0,3.1-7.184a3.761,3.761,0,0,0-1,2.619A3.731,3.731,0,0,0,3.381-1.658a3.8,3.8,0,0,0,2.631,1A3.739,3.739,0,0,0,8.918-1.939a3.781,3.781,0,0,0,1-2.625,3.732,3.732,0,0,0-1.277-2.9A3.781,3.781,0,0,0,6.012-8.461Z" transform="translate(188 820)" fill="#32b584"/><path d="M6.012-9.709a5.157,5.157,0,0,1,2.625.7A5.071,5.071,0,0,1,10.5-7.172a5.039,5.039,0,0,1,.709,2.607A5.05,5.05,0,0,1,10.5-1.951,5.071,5.071,0,0,1,8.637-.111a5.157,5.157,0,0,1-2.625.7,5.189,5.189,0,0,1-2.631-.7,5.117,5.117,0,0,1-1.869-1.84A5.05,5.05,0,0,1,.8-4.564a5.039,5.039,0,0,1,.709-2.607,5.117,5.117,0,0,1,1.869-1.84A5.189,5.189,0,0,1,6.012-9.709Zm0,1.248A3.757,3.757,0,0,0,3.1-7.184a3.761,3.761,0,0,0-1,2.619A3.731,3.731,0,0,0,3.381-1.658a3.8,3.8,0,0,0,2.631,1A3.739,3.739,0,0,0,8.918-1.939a3.781,3.781,0,0,0,1-2.625,3.732,3.732,0,0,0-1.277-2.9A3.781,3.781,0,0,0,6.012-8.461Z" transform="translate(157 820)" fill="#32b584"/><rect width="355" height="1" transform="translate(32 760)" fill="#ddd"/><rect width="355" height="1" transform="translate(32 795)" fill="#ddd"/><rect width="355" height="1" transform="translate(32 833)" fill="#ddd"/></g></svg>